<svg width="200" height="173" viewBox="0 0 200 173" fill="none" xmlns="http://www.w3.org/2000/svg">
<path d="M176.988 149.513C191.194 147.551 200.933 132.232 198.789 115.324C197.18 102.994 189.675 93.1853 180.115 89.6356C176.452 87.1135 164.658 77.7722 168.679 63.5735C173.414 46.8527 166.088 32.0001 161.71 26.9558C157.332 21.9115 144.198 7.99307 117.036 19.3894C79.2422 35.2695 92.3762 91.7841 92.3762 91.7841C92.3762 91.7841 146.699 148.205 152.239 149.326C157.778 150.541 173.057 149.7 173.146 149.7C174.486 149.793 175.737 149.7 176.988 149.513Z" fill="#403233"/>
<path d="M122.574 18.362C122.485 17.9884 122.663 17.7081 122.931 17.6147C123.199 17.5213 129.096 15.4662 136.959 15.3728C147.502 15.2794 156.615 19.0159 163.138 26.0218C177.701 41.6217 174.931 59.7438 174.038 65.7222C173.949 66.2826 173.859 66.6563 173.859 67.0299C173.859 67.2168 173.859 67.3102 173.77 67.5904C173.502 69.7389 172.966 74.6898 174.217 80.0143C175.736 86.4597 179.399 91.504 185.206 94.7734C185.564 94.9603 185.832 95.5207 185.653 95.8944C185.474 96.268 185.117 96.3615 184.67 96.1746C178.327 92.625 174.306 87.207 172.698 80.1077C171.358 74.5029 171.983 69.3652 172.251 67.1233L172.34 66.6563C172.34 66.2826 172.43 65.909 172.519 65.3485C173.413 59.5569 176.093 42.0888 162.155 27.1428C147.144 11.0758 123.825 19.2027 123.557 19.2027C123.199 19.2961 122.753 19.1093 122.574 18.6422C122.574 18.5488 122.574 18.4554 122.574 18.362Z" fill="#403233"/>
<path d="M161.44 86.6459C160.904 85.3381 140.801 67.4964 138.836 64.8808C136.87 62.1718 138.746 60.6772 138.746 60.6772C141.516 60.6772 143.75 58.3419 143.75 55.4461C143.75 52.5504 141.516 50.215 138.746 50.215C136.513 50.215 134.636 51.7096 134.011 53.7647L133.832 53.4845C129.633 53.2042 116.678 36.4834 116.678 36.4834C103.99 43.5827 108.011 58.4353 108.011 58.4353L105.062 61.0509L98.7188 83.3765L132.045 102.806C132.045 102.9 161.976 87.9537 161.44 86.6459Z" fill="#FEAA94"/>
<path d="M167.695 150.54L108.368 149.699H83.7977L86.2101 94.3053L68.9661 104.861C68.9661 104.861 66.7324 106.262 63.4266 107.663C56.4575 110.652 44.485 113.828 38.2307 104.767C29.028 91.4095 37.0692 82.1617 40.1964 78.5186C41.894 76.5569 49.6672 72.3533 58.9592 67.4959C66.7324 63.4792 75.6672 58.9954 83.083 54.9786C83.1723 54.9786 83.1723 54.8852 83.2617 54.8852C99.4335 46.2913 107.653 57.0337 107.653 57.0337C107.653 57.0337 107.653 59.1822 107.564 58.9954C105.956 61.9846 106.135 63.666 105.509 66.1881C104.705 69.1773 105.42 71.8863 105.777 74.315C107.117 84.4036 116.677 89.7281 125.523 91.4095C127.935 91.8766 130.616 91.8766 133.296 91.5963C137.049 91.2227 140.98 90.1951 144.464 89.1676C152.148 86.7389 158.403 83.5628 158.403 83.5628C158.403 83.5628 167.159 91.4095 169.66 100.844C173.324 114.296 167.695 150.54 167.695 150.54Z" fill="#0C87C9"/>
<path d="M105.955 152.782C106.134 153.063 121.502 164.833 122.931 165.767C134.1 172.866 152.416 176.603 162.512 165.113C166.443 160.723 167.694 154.557 167.694 148.579C167.247 118.5 119 144.375 119 144.375L111.495 144.936C111.405 144.936 105.33 151.661 105.955 152.782Z" fill="#0C87C9"/>
<path d="M155.007 80.3861C150.987 82.2544 147.324 85.4304 144.018 88.9801C135.53 98.2279 129.99 110.278 129.99 110.278C140.176 121.207 137.763 136.714 137.763 136.714L123.111 127.933L107.832 149.698H83.2617L85.6741 94.3046C89.4267 83.3753 99.8803 72.0724 105.777 66.1874C108.368 63.6653 109.53 62.918 109.53 62.918L112.3 66.3742C110.155 67.4952 108.1 70.858 105.241 74.3143C101.757 78.5179 98.8081 82.628 98.8081 82.628C101.042 90.8483 123.736 106.542 123.736 106.542C124.897 102.618 128.561 97.3872 132.849 91.5956C139.55 82.3478 150.451 75.9957 150.451 75.9957L155.007 80.3861Z" fill="#EFEAE1"/>
<path d="M137.852 137.182C137.584 137.182 137.406 136.995 137.406 136.715L135.887 109.532C135.887 109.251 136.065 109.064 136.333 109.064C136.601 109.064 136.78 109.251 136.78 109.532L138.299 136.715C138.299 136.995 138.12 137.182 137.852 137.182Z" fill="white"/>
<path d="M119.985 70.1117C117.84 70.1117 115.875 69.6446 114.266 68.6171C107.833 64.6004 107.476 58.4351 107.387 58.2483C107.387 57.9681 107.565 57.7812 107.833 57.7812C108.101 57.7812 108.28 57.9681 108.28 58.2483C108.28 58.3417 108.727 64.2267 114.713 67.8698C121.861 72.3536 133.119 64.6004 133.208 64.5069C133.387 64.3201 133.655 64.4135 133.833 64.6004C134.012 64.7872 133.923 65.0674 133.744 65.2543C133.655 65.3477 130.796 67.3093 126.954 68.7105C124.452 69.6446 122.129 70.1117 119.985 70.1117Z" fill="#EE7772"/>
<path d="M122.128 80.0136C122.038 80.0136 122.038 80.0136 121.949 80.0136C121.681 79.9202 121.591 79.6399 121.681 79.4531C121.681 79.3597 123.825 72.634 120.609 70.3921C120.43 70.2053 120.341 69.925 120.519 69.7382C120.698 69.5514 120.966 69.458 121.145 69.6448C124.897 72.2604 122.664 79.4531 122.574 79.7334C122.485 79.8268 122.306 80.0136 122.128 80.0136Z" fill="#EE7772"/>
<path d="M136.244 58.2464C136.155 58.2464 136.065 58.2464 136.065 58.153C135.887 58.0596 135.797 57.7794 135.887 57.4991C135.976 57.3123 137.942 53.5758 140.979 53.7626C141.247 53.7626 141.426 54.0429 141.426 54.2297C141.426 54.5099 141.158 54.6968 140.979 54.6968C138.478 54.6033 136.691 57.8728 136.691 57.9662C136.512 58.153 136.333 58.2464 136.244 58.2464Z" fill="#EE7772"/>
<path d="M115.604 60.8652C115.515 60.8652 115.515 60.8652 115.426 60.8652C114.8 60.6783 112.656 59.8376 112.566 58.6233C112.566 58.2496 112.656 57.7826 113.371 57.3155C115.247 56.1011 116.944 51.5239 116.944 51.4305C117.034 51.1503 117.302 51.0569 117.57 51.1503C117.838 51.2437 117.927 51.5239 117.838 51.8041C117.749 51.991 116.051 56.8484 113.907 58.1562C113.639 58.343 113.549 58.4364 113.549 58.5298C113.549 58.9035 114.8 59.5574 115.783 59.931C116.051 60.0244 116.14 60.3047 116.051 60.4915C115.962 60.6783 115.783 60.8652 115.604 60.8652Z" fill="#EE7772"/>
<path d="M118.465 62.638C117.482 62.638 116.857 62.4512 116.768 62.4512C116.5 62.3577 116.41 62.1709 116.41 61.8907C116.5 61.6105 116.678 61.517 116.946 61.517C116.946 61.517 119.448 62.1709 121.592 60.7697C121.771 60.6763 122.039 60.6763 122.218 60.9566C122.307 61.1434 122.307 61.517 122.039 61.6104C120.878 62.4512 119.537 62.638 118.465 62.638Z" fill="#EE7772"/>
<path d="M127.488 48.2521C127.399 48.2521 127.31 48.2521 127.22 48.1587C123.557 46.197 120.698 47.5982 120.608 47.5982C120.34 47.7851 119.983 47.5982 119.804 47.318C119.626 47.0377 119.804 46.6641 120.072 46.4773C120.251 46.3839 123.468 44.7959 127.667 47.0378C127.935 47.2246 128.114 47.5982 127.935 47.8785C127.935 48.1587 127.756 48.2521 127.488 48.2521Z" fill="#403233"/>
<path d="M115.248 49.3719C115.159 49.3719 115.159 49.3719 115.248 49.3719C114.891 49.3719 114.623 48.9983 114.623 48.718C114.623 48.718 114.802 46.4761 113.551 45.1684C112.747 44.3277 111.585 44.0474 109.977 44.2342C109.62 44.2342 109.352 44.0474 109.352 43.6738C109.352 43.3001 109.53 43.0199 109.888 43.0199C111.853 42.7396 113.372 43.2067 114.444 44.3276C116.142 46.0091 115.874 48.718 115.874 48.9049C115.785 49.1851 115.517 49.3719 115.248 49.3719Z" fill="#403233"/>
<path d="M124.272 56.1933C124.963 56.1933 125.523 55.5241 125.523 54.6987C125.523 53.8733 124.963 53.2041 124.272 53.2041C123.582 53.2041 123.021 53.8733 123.021 54.6987C123.021 55.5241 123.582 56.1933 124.272 56.1933Z" fill="#403233"/>
<path d="M113.728 52.9238C114.369 52.9238 114.889 52.2546 114.889 51.4292C114.889 50.6037 114.369 49.9346 113.728 49.9346C113.086 49.9346 112.566 50.6037 112.566 51.4292C112.566 52.2546 113.086 52.9238 113.728 52.9238Z" fill="#403233"/>
<g opacity="0.4">
<path d="M109.261 57.8755C112.863 57.8755 115.783 54.8225 115.783 51.0564C115.783 47.2903 112.863 44.2373 109.261 44.2373C105.658 44.2373 102.738 47.2903 102.738 51.0564C102.738 54.8225 105.658 57.8755 109.261 57.8755Z" fill="#FDC759"/>
</g>
<g opacity="0.4">
<path d="M124.182 61.2368C127.785 61.2368 130.705 58.1838 130.705 54.4177C130.705 50.6516 127.785 47.5986 124.182 47.5986C120.58 47.5986 117.66 50.6516 117.66 54.4177C117.66 58.1838 120.58 61.2368 124.182 61.2368Z" fill="#FDC759"/>
</g>
<path d="M115.664 52.4078L115.582 52.7715L117.756 53.3065L117.838 52.9428L115.664 52.4078Z" fill="#60B2EF"/>
<path d="M135.382 51.3149L130.594 53.6191L130.743 53.9586L135.532 51.6543L135.382 51.3149Z" fill="#60B2EF"/>
<path d="M109.263 58.2478C105.421 58.2478 102.383 54.9784 102.383 51.0551C102.383 47.1317 105.51 43.8623 109.263 43.8623C113.104 43.8623 116.142 47.1317 116.142 51.0551C116.142 54.9784 113.015 58.2478 109.263 58.2478ZM109.263 44.703C105.867 44.703 103.187 47.5988 103.187 51.0551C103.187 54.6047 105.957 57.4071 109.263 57.4071C112.568 57.4071 115.338 54.5113 115.338 51.0551C115.338 47.5988 112.658 44.703 109.263 44.703Z" fill="white"/>
<path d="M124.182 61.6111C120.341 61.6111 117.303 58.3417 117.303 54.4184C117.303 50.4016 120.43 47.2256 124.182 47.2256C128.024 47.2256 131.062 50.495 131.062 54.4184C131.062 58.3417 128.024 61.6111 124.182 61.6111ZM124.182 47.9729C120.787 47.9729 118.107 50.8687 118.107 54.3249C118.107 57.8746 120.877 60.677 124.182 60.677C127.578 60.677 130.258 57.7812 130.258 54.3249C130.347 50.8687 127.578 47.9729 124.182 47.9729Z" fill="white"/>
<path d="M115.725 52.1358L115.541 52.9541L117.715 53.4891L117.9 52.6708L115.725 52.1358Z" fill="white"/>
<path d="M135.308 51.1449L130.52 53.4492L130.856 54.2129L135.644 51.9086L135.308 51.1449Z" fill="white"/>
<path d="M128.161 51.1875C128.374 50.7219 127.824 49.9841 126.933 49.5396C126.043 49.0951 125.148 49.1122 124.936 49.5779C124.723 50.0435 125.273 50.7812 126.163 51.2257C127.054 51.6702 127.949 51.6531 128.161 51.1875Z" fill="white"/>
<path d="M112.648 47.6995C112.903 47.1407 112.388 46.3275 111.497 45.883C110.607 45.4385 109.678 45.5311 109.423 46.0898C109.168 46.6485 109.683 47.4618 110.574 47.9063C111.464 48.3508 112.393 48.2582 112.648 47.6995Z" fill="white"/>
<path d="M95.6819 64.4132C93.8057 65.1605 93.0015 67.1221 92.4655 67.8694C92.3761 70.5784 88.7129 78.5184 88.7129 78.5184L85.5857 94.5854L68.3417 105.141C68.3417 105.141 66.1081 106.542 62.8022 107.943C42.4311 103.46 49.4002 81.0406 49.4002 81.0406L61.1046 77.7711C58.6029 75.0622 58.3349 67.8694 58.3349 67.8694C59.0497 57.7809 74.06 55.7258 74.06 55.7258C74.06 55.7258 71.2009 43.3953 70.8435 42.2744C70.4861 41.1534 68.5204 36.8565 72.1837 35.3619C75.8469 33.8673 78.438 38.4445 78.7954 40.1259C78.9741 41.06 80.9397 50.2144 82.6373 55.2587C83.8881 58.9018 85.0496 62.0778 85.3177 62.5449C86.0325 63.7593 89.3383 62.4515 91.0359 59.7425C92.7335 57.0336 97.9156 55.3521 99.7919 57.127C101.758 58.715 97.5582 63.6659 95.6819 64.4132Z" fill="#FEAA94"/>
<path d="M85.3167 62.8248C85.138 62.8248 85.0487 62.7314 84.9593 62.638C84.6019 61.9841 83.083 57.6871 82.1896 55.2584C80.492 50.3075 78.5263 41.1531 78.3476 40.0322C78.169 39.098 76.9181 36.8561 75.3098 35.8286C74.327 35.2681 73.3442 35.1747 72.3614 35.6418C69.8597 36.6693 70.3064 39.1915 71.1999 41.5268C71.2892 41.7136 71.2892 41.807 71.3786 41.9004C71.736 43.0214 76.2033 59.7422 76.382 60.4895C76.4714 60.7697 76.2927 60.9566 76.0246 61.05C75.7566 61.1434 75.5779 60.9566 75.4885 60.6763C75.3992 60.4895 70.8425 43.2082 70.4851 42.0872C70.4851 41.9938 70.3958 41.9004 70.3958 41.7136C69.8597 40.219 68.4301 36.1088 72.0934 34.6142C73.3442 34.1472 74.5951 34.2406 75.7566 34.8945C77.8116 36.1088 79.0624 38.631 79.3305 39.6585C79.5092 40.7795 81.4748 49.7471 83.1724 54.6979C84.7806 59.462 85.5848 61.6105 85.8528 61.8907C85.9421 62.0775 85.9421 62.3578 85.6741 62.5446C85.4954 62.8248 85.4061 62.8248 85.3167 62.8248Z" fill="white"/>
<path d="M37.9622 84.2162C37.7835 84.2162 37.6048 84.0294 37.5154 83.8425C37.4261 83.5623 37.6048 83.3755 37.8728 83.2821L49.8453 80.2929C50.1134 80.1994 50.2921 80.3863 50.3814 80.6665C50.4708 80.9467 50.2921 81.1336 50.024 81.227L38.0515 84.2162C38.0515 84.2162 37.9622 84.2162 37.9622 84.2162Z" fill="white"/>
<path d="M64.9451 78.9859L89.6943 78.332C90.9451 78.332 92.0173 79.1727 92.2853 80.4805L101.577 128.027C101.935 129.616 100.773 131.204 99.1651 131.204L73.9692 132.138C72.7183 132.231 71.6462 131.297 71.3781 129.989L62.5328 82.1619C62.2647 80.4805 63.4262 78.9859 64.9451 78.9859Z" fill="#FDC759"/>
<path d="M73.791 132.605C72.3614 132.605 71.1106 131.578 70.8425 130.083L62.0865 82.256C61.9078 81.3218 62.1759 80.3877 62.712 79.7338C63.248 78.9865 64.0522 78.6129 64.9456 78.6129L89.6948 77.959C91.1243 77.959 92.3752 78.9865 92.7326 80.4811L102.025 128.028C102.203 128.962 102.025 129.896 101.399 130.55C100.863 131.298 100.059 131.671 99.1656 131.765L73.9697 132.699C73.8803 132.605 73.791 132.605 73.791 132.605ZM64.9456 79.4536C64.3202 79.4536 63.7841 79.7338 63.3374 80.2943C62.98 80.7614 62.8013 81.4152 62.8907 82.0691L71.6467 129.896C71.8254 130.924 72.7188 131.671 73.791 131.671L98.9869 130.737C99.6123 130.737 100.148 130.457 100.595 129.896C101.042 129.336 101.131 128.775 101.042 128.122L91.7498 80.5745C91.5711 79.547 90.6776 78.7997 89.6054 78.7997L64.9456 79.4536Z" fill="white"/>
<path d="M65.84 86.179L67.2695 92.9981C67.6269 94.6795 69.0564 95.8005 70.6647 95.8005C72.7197 95.7071 74.3279 93.652 73.8812 91.5035L72.541 84.6844C72.1836 83.0029 70.754 81.7886 69.0565 81.882C66.9121 81.9754 65.3932 84.0305 65.84 86.179Z" fill="#C1B5B0"/>
<path d="M69.3235 88.2341C70.5571 88.2341 71.5572 87.1885 71.5572 85.8988C71.5572 84.609 70.5571 83.5635 69.3235 83.5635C68.0899 83.5635 67.0898 84.609 67.0898 85.8988C67.0898 87.1885 68.0899 88.2341 69.3235 88.2341Z" fill="#44342F"/>
<path d="M70.5735 94.0241C71.8071 94.0241 72.8072 92.9786 72.8072 91.6888C72.8072 90.3991 71.8071 89.3535 70.5735 89.3535C69.3399 89.3535 68.3398 90.3991 68.3398 91.6888C68.3398 92.9786 69.3399 94.0241 70.5735 94.0241Z" fill="#44342F"/>
<path d="M75.4004 94.5852C75.1324 92.9972 76.2045 91.5026 77.8128 91.4092C83.4417 91.1289 96.5757 90.8487 98.0946 94.9589C99.7922 99.9097 103.723 115.229 105.064 116.724C106.404 118.219 122.486 128.868 122.486 128.868L105.957 152.688L85.1393 131.67L92.9124 131.483C92.9124 131.483 91.2149 123.637 93.0018 120.46L88.5344 122.983C87.1049 123.823 85.3179 123.356 84.4245 121.955C83.531 120.554 83.7991 118.592 85.0499 117.565L95.2355 109.158L83.263 116.817C81.8334 117.752 80.0465 117.284 79.2424 115.79C78.4382 114.389 78.885 112.614 80.1358 111.68L93.5379 102.712L80.5826 110.092C79.0637 110.932 77.1874 110.279 76.4726 108.597C75.8472 107.102 76.3832 105.421 77.7234 104.58L89.696 97.7612C89.696 97.7612 76.3832 99.7229 75.4004 95.893C75.5791 95.4259 75.4898 94.9589 75.4004 94.5852Z" fill="#FEA795"/>
<path d="M92.9118 131.95C92.7331 131.95 92.5544 131.763 92.4651 131.576C92.3757 131.296 91.1249 125.224 92.1077 121.488L88.8019 123.356C87.1936 124.29 85.1386 123.823 84.0665 122.142C82.9943 120.554 83.3517 118.312 84.7812 117.098L88.8912 113.735L83.5304 117.191C82.7263 117.658 81.8328 117.845 80.9393 117.658C80.0459 117.471 79.3311 116.817 78.8843 116.07C77.9909 114.482 78.4376 112.334 79.9565 111.306L82.7263 109.438L80.85 110.465C80.0459 110.932 79.063 111.026 78.1696 110.746C77.2761 110.465 76.5613 109.718 76.1146 108.784C75.3998 107.102 76.0252 105.047 77.6335 104.207L87.551 98.5085C83.5304 98.8821 75.9359 99.2558 75.1318 95.9863C75.0424 95.5193 74.8637 95.0522 74.8637 94.5851C74.685 93.651 74.9531 92.7169 75.4892 92.063C76.0252 91.3157 76.8294 90.942 77.7228 90.8486C77.9909 90.8486 78.1696 91.0355 78.1696 91.3157C78.1696 91.5959 77.9909 91.7828 77.7228 91.7828C77.0974 91.7828 76.5613 92.1564 76.2039 92.6235C75.8465 93.0905 75.6678 93.7444 75.7572 94.3983C75.8465 94.772 75.9359 95.239 76.0252 95.7061C76.6507 98.2282 84.7812 97.948 89.7847 97.2007C89.9634 97.2007 90.2314 97.2941 90.3208 97.4809C90.4101 97.6677 90.3208 97.948 90.1421 98.0414L78.1696 104.861C77.0081 105.514 76.5613 107.009 77.0974 108.223C77.3654 108.877 77.9015 109.438 78.6163 109.625C79.2417 109.905 79.9565 109.811 80.5819 109.438L93.5373 102.058C93.716 101.965 93.984 102.058 94.1627 102.245C94.3414 102.432 94.252 102.712 93.984 102.899L80.5819 111.866C79.5098 112.614 79.1524 114.108 79.7778 115.323C80.1352 115.883 80.6713 116.35 81.2967 116.537C81.9221 116.724 82.6369 116.63 83.173 116.257L95.1455 108.597C95.3242 108.504 95.5922 108.504 95.7709 108.69C95.9496 108.877 95.8603 109.157 95.6816 109.344L85.496 117.751C84.4239 118.686 84.1558 120.367 84.9599 121.488C85.7641 122.702 87.283 123.076 88.4445 122.329L92.9118 119.807C93.0905 119.713 93.3586 119.713 93.4479 119.9C93.6266 120.087 93.6266 120.274 93.5373 120.46C91.8397 123.45 93.4479 131.109 93.4479 131.203C93.5373 131.483 93.3586 131.67 93.0905 131.763C93.0012 131.95 93.0012 131.95 92.9118 131.95Z" fill="#EE7772"/>
<path d="M100.327 135.873C100.238 135.873 100.238 135.873 100.327 135.873C100.059 135.873 95.2344 135.126 92.8221 131.016C91.2138 128.307 91.1245 124.664 92.554 120.367C92.6434 120.087 92.9114 119.993 93.0901 120.087C93.3581 120.18 93.4475 120.46 93.3581 120.647C92.0179 124.664 92.1073 127.933 93.5368 130.455C95.6812 134.099 100.238 134.846 100.327 134.846C100.595 134.846 100.774 135.126 100.685 135.406C100.685 135.687 100.506 135.873 100.327 135.873Z" fill="#EE7772"/>
<path d="M93.0896 120.927C93.0002 120.927 92.8215 120.833 92.7322 120.74C92.5535 120.553 92.6428 120.273 92.8215 120.086L98.8971 114.948C99.0758 114.762 99.3439 114.855 99.5225 115.042C99.7012 115.229 99.6119 115.509 99.4332 115.696L93.3576 120.833C93.2682 120.833 93.1789 120.927 93.0896 120.927Z" fill="#EE7772"/>
<path d="M74.1498 72.822C74.0604 72.822 73.9711 72.822 73.8817 72.7286C67.3594 67.0304 69.057 57.409 69.1463 56.9419C69.2357 56.6617 69.4144 56.4748 69.6824 56.5682C69.9504 56.6617 70.1291 56.8485 70.0398 57.1287C70.0398 57.2221 68.3422 66.6568 74.4178 71.9813C74.5965 72.1681 74.5965 72.4484 74.5071 72.6352C74.3285 72.7286 74.2391 72.822 74.1498 72.822Z" fill="#EE7772"/>
<path d="M67.5375 75.1567C67.3588 75.1567 67.2695 75.0633 67.1801 74.9699C60.1217 65.4418 62.9808 60.1173 63.1595 59.9305C63.2488 59.7437 63.6062 59.6503 63.7849 59.7437C63.9636 59.8371 64.053 60.2107 63.9636 60.3976C63.9636 60.491 61.2832 65.4418 67.9842 74.4094C68.1629 74.5963 68.0736 74.8765 67.8949 75.0633C67.7162 75.0633 67.6268 75.1567 67.5375 75.1567Z" fill="#EE7772"/>
<path d="M64.5891 75.6231C60.4792 75.6231 59.139 72.0734 59.139 72.0734C59.0496 71.7932 59.139 71.5129 59.407 71.4195C59.6751 71.3261 59.9431 71.4195 59.9431 71.6998C60.0324 71.8866 61.5513 75.9967 67.2696 74.1285C67.3589 74.1285 67.4482 74.1285 67.5376 74.1285C67.7163 74.2219 72.273 75.4363 73.6132 72.0734C73.7025 71.98 73.7919 71.7932 73.8812 71.7932C73.8812 71.7932 75.7575 71.2327 76.5617 69.3644C77.2764 67.5896 77.0084 65.2543 75.5788 62.3585C75.4895 62.1717 75.5788 61.798 75.7575 61.7046C75.9362 61.6112 76.2936 61.7046 76.383 61.8914C77.9019 65.0675 78.1699 67.683 77.3658 69.7381C76.5616 71.6998 74.9534 72.4471 74.328 72.6339C72.9878 75.7165 69.3245 75.5297 67.4482 75.0626C66.4654 75.5297 65.4826 75.6231 64.5891 75.6231Z" fill="#EE7772"/>
<path d="M124.718 109.158H124.629C124.45 109.064 124.361 108.878 124.361 108.691C124.539 108.13 124.718 107.476 124.897 106.916C124.986 106.729 125.165 106.636 125.344 106.729C125.522 106.822 125.612 107.009 125.522 107.196C125.344 107.757 125.165 108.317 124.986 108.971C124.986 109.064 124.897 109.158 124.718 109.158ZM123.289 108.224C123.199 108.224 123.11 108.224 123.11 108.13C122.663 107.85 122.216 107.476 121.591 107.103C121.412 107.009 121.412 106.729 121.502 106.542C121.591 106.355 121.859 106.355 122.038 106.449C122.574 106.822 123.11 107.196 123.557 107.476C123.735 107.57 123.735 107.85 123.646 108.037C123.467 108.224 123.378 108.224 123.289 108.224ZM120.251 106.169C120.161 106.169 120.072 106.169 120.072 106.075C119.625 105.702 119.089 105.421 118.553 105.048C118.375 104.954 118.375 104.674 118.464 104.487C118.553 104.3 118.821 104.3 119 104.394C119.536 104.767 119.983 105.141 120.429 105.421C120.608 105.515 120.608 105.795 120.519 105.982C120.519 106.075 120.429 106.169 120.251 106.169ZM125.969 105.608C125.88 105.608 125.88 105.608 125.79 105.608C125.612 105.515 125.522 105.328 125.612 105.141C125.88 104.581 126.058 104.02 126.326 103.46C126.416 103.273 126.594 103.179 126.773 103.273C126.952 103.366 127.041 103.553 126.952 103.74C126.684 104.3 126.505 104.861 126.237 105.421C126.237 105.515 126.058 105.608 125.969 105.608ZM117.302 104.02C117.213 104.02 117.124 104.02 117.124 103.927C116.677 103.553 116.141 103.179 115.694 102.806C115.515 102.712 115.515 102.432 115.605 102.245C115.694 102.058 115.962 102.058 116.141 102.152C116.677 102.525 117.124 102.899 117.57 103.273C117.749 103.366 117.749 103.646 117.66 103.833C117.57 103.927 117.481 104.02 117.302 104.02ZM127.488 102.245C127.399 102.245 127.399 102.245 127.309 102.245C127.131 102.152 127.041 101.965 127.131 101.778C127.399 101.218 127.667 100.657 128.024 100.097C128.113 99.9099 128.381 99.8165 128.471 100.003C128.649 100.097 128.739 100.377 128.56 100.47C128.292 101.031 127.935 101.498 127.667 102.058C127.667 102.152 127.577 102.245 127.488 102.245ZM114.443 101.778C114.354 101.778 114.265 101.778 114.265 101.685C113.818 101.311 113.282 100.937 112.835 100.564C112.656 100.47 112.656 100.19 112.746 100.003C112.835 99.8165 113.103 99.8165 113.282 99.9099C113.728 100.284 114.265 100.657 114.711 101.031C114.89 101.124 114.89 101.405 114.801 101.591C114.622 101.778 114.533 101.778 114.443 101.778ZM111.584 99.5363C111.495 99.5363 111.405 99.5363 111.405 99.4429C110.959 99.0692 110.512 98.6956 109.976 98.3219C109.797 98.2285 109.797 97.9483 109.887 97.7614C109.976 97.5746 110.244 97.5746 110.423 97.668C110.869 98.0417 111.316 98.4153 111.852 98.789C112.031 98.8824 112.031 99.1626 111.942 99.3494C111.852 99.4429 111.673 99.5363 111.584 99.5363ZM129.275 99.0692C129.186 99.0692 129.186 99.0692 129.096 98.9758C128.917 98.8824 128.917 98.6021 129.007 98.4153C129.364 97.8548 129.632 97.3878 129.99 96.8273C130.079 96.6405 130.347 96.6405 130.526 96.7339C130.704 96.8273 130.704 97.1076 130.615 97.2944C130.258 97.7614 129.99 98.3219 129.632 98.8824C129.454 98.9758 129.364 99.0692 129.275 99.0692ZM108.814 97.201C108.725 97.201 108.636 97.201 108.546 97.1076C108.1 96.7339 107.653 96.2668 107.206 95.8932C107.027 95.7998 107.027 95.5195 107.206 95.3327C107.295 95.1459 107.564 95.1459 107.742 95.3327C108.189 95.7064 108.636 96.1734 109.082 96.5471C109.261 96.6405 109.261 96.9207 109.172 97.1076C108.993 97.1076 108.904 97.201 108.814 97.201ZM131.24 95.9866C131.151 95.9866 131.062 95.9866 131.062 95.8932C130.883 95.7998 130.883 95.5195 130.972 95.3327C131.33 94.8657 131.687 94.3052 132.045 93.8381C132.134 93.6513 132.402 93.6513 132.581 93.7447C132.759 93.8381 132.759 94.1184 132.67 94.3052C132.313 94.7722 131.955 95.2393 131.598 95.7998C131.509 95.8932 131.419 95.9866 131.24 95.9866ZM106.134 94.7722C106.045 94.7722 105.955 94.7722 105.866 94.6788C105.419 94.2118 104.972 93.8381 104.526 93.3711C104.347 93.1842 104.347 92.9974 104.526 92.8106C104.704 92.6237 104.883 92.6237 105.062 92.8106C105.509 93.2776 105.955 93.6513 106.402 94.1184C106.581 94.2118 106.581 94.492 106.402 94.6788C106.313 94.6788 106.223 94.7722 106.134 94.7722ZM133.474 92.9974C133.385 92.9974 133.295 92.9974 133.206 92.904C133.027 92.8106 133.027 92.5303 133.117 92.3435C133.474 91.8764 133.921 91.4094 134.278 90.9423C134.368 90.7555 134.636 90.7555 134.814 90.9423C134.993 91.0357 134.993 91.316 134.814 91.5028C134.457 91.9699 134.01 92.4369 133.653 92.904C133.653 92.9974 133.564 92.9974 133.474 92.9974ZM103.543 92.1567C103.454 92.1567 103.364 92.1567 103.275 92.0633C102.828 91.5962 102.381 91.1292 102.024 90.6621C101.935 90.4753 101.935 90.2884 102.024 90.1016C102.203 90.0082 102.381 90.0082 102.56 90.1016C102.917 90.5687 103.364 91.0357 103.811 91.4094C103.99 91.5962 103.99 91.783 103.811 91.9699C103.722 92.1567 103.632 92.1567 103.543 92.1567ZM135.887 90.195C135.797 90.195 135.708 90.195 135.618 90.1016C135.44 89.9148 135.44 89.728 135.618 89.5411C136.065 89.0741 136.423 88.607 136.869 88.14C137.048 87.9531 137.227 87.9531 137.405 88.14C137.584 88.3268 137.584 88.5136 137.405 88.7004C136.959 89.1675 136.601 89.5411 136.155 90.0082C136.065 90.195 135.976 90.195 135.887 90.195ZM101.041 89.4477C100.952 89.4477 100.862 89.4477 100.773 89.3543C100.326 88.8872 99.969 88.3268 99.701 87.8597C99.6116 87.6729 99.6116 87.4861 99.7903 87.2992C99.969 87.2058 100.148 87.2058 100.326 87.3927C100.684 87.8597 101.041 88.3268 101.399 88.8872C101.488 89.0741 101.488 89.2609 101.309 89.4477C101.22 89.3543 101.131 89.4477 101.041 89.4477ZM138.388 87.5795C138.299 87.5795 138.21 87.5795 138.12 87.4861C137.942 87.2992 137.942 87.1124 138.12 86.9256C138.567 86.4585 139.014 86.0849 139.46 85.6178C139.639 85.5244 139.818 85.5244 139.997 85.6178C140.175 85.8046 140.086 85.9915 139.997 86.1783C139.55 86.5519 139.103 87.019 138.746 87.4861C138.567 87.4861 138.478 87.5795 138.388 87.5795ZM98.9862 86.3651C98.8968 86.3651 98.7182 86.2717 98.7182 86.1783C98.3608 85.5244 98.0927 84.9639 97.914 84.4035C97.8247 84.2166 97.914 84.0298 98.0927 83.9364C98.2714 83.843 98.4501 83.9364 98.5395 84.1232C98.7182 84.5903 98.9862 85.1508 99.2542 85.7112C99.3436 85.8981 99.2542 86.0849 99.1649 86.1783C99.1649 86.3651 99.0755 86.3651 98.9862 86.3651ZM140.979 84.9639C140.89 84.9639 140.801 84.9639 140.711 84.8705C140.622 84.6837 140.622 84.4969 140.711 84.31C141.158 83.843 141.605 83.4693 142.051 83.0957C142.23 83.0023 142.409 83.0023 142.588 83.0957C142.677 83.2825 142.677 83.4693 142.588 83.6561C142.141 84.0298 141.694 84.4969 141.247 84.8705C141.158 84.9639 141.069 84.9639 140.979 84.9639ZM97.914 82.8154C97.7353 82.8154 97.5566 82.6286 97.5566 82.4418V82.3484L97.646 82.255C97.646 82.255 98.0034 81.6945 98.7182 80.7604C98.8075 80.5735 99.0755 80.5735 99.2542 80.667C99.4329 80.7604 99.4329 81.0406 99.3436 81.2274C98.7182 82.0681 98.3608 82.6286 98.2714 82.722C98.1821 82.8154 98.0927 82.8154 97.914 82.8154ZM143.66 82.5352C143.57 82.5352 143.481 82.4418 143.392 82.4418C143.302 82.255 143.302 82.0681 143.481 81.8813C143.928 81.5077 144.464 81.0406 144.911 80.667C145.089 80.5735 145.268 80.5735 145.447 80.7604C145.536 80.9472 145.536 81.134 145.357 81.3208C144.911 81.6945 144.464 82.0681 143.928 82.4418C143.838 82.5352 143.749 82.5352 143.66 82.5352ZM146.519 80.2933C146.429 80.2933 146.34 80.1999 146.251 80.1065C146.161 79.9197 146.161 79.7328 146.34 79.546C146.876 79.1723 147.323 78.7987 147.77 78.4251C147.948 78.3316 148.127 78.3316 148.306 78.5185C148.395 78.7053 148.395 78.8921 148.216 79.0789C147.77 79.4526 147.323 79.7328 146.787 80.1999C146.698 80.2933 146.608 80.2933 146.519 80.2933ZM100.058 79.8262C99.969 79.8262 99.8797 79.8262 99.8797 79.7328C99.701 79.6394 99.701 79.3592 99.7903 79.1724C100.148 78.7053 100.505 78.2382 100.862 77.6777C100.952 77.4909 101.22 77.4909 101.399 77.5843C101.577 77.6777 101.577 77.958 101.488 78.1448C101.131 78.7053 100.773 79.1724 100.416 79.6394C100.237 79.8262 100.148 79.8262 100.058 79.8262ZM149.467 78.1448C149.378 78.1448 149.199 78.0514 149.199 77.958C149.11 77.7712 149.11 77.5843 149.289 77.3975C150.271 76.7436 150.807 76.37 150.807 76.37C150.986 76.2766 151.165 76.2766 151.254 76.4634C151.344 76.6502 151.344 76.837 151.165 76.9305C151.165 76.9305 150.629 77.3041 149.646 77.958C149.557 78.0514 149.557 78.1448 149.467 78.1448ZM102.203 76.837C102.113 76.837 102.024 76.837 102.024 76.7436C101.845 76.6502 101.845 76.37 101.935 76.1831C102.292 75.7161 102.649 75.249 103.007 74.6886C103.096 74.5017 103.364 74.5017 103.543 74.5951C103.722 74.6886 103.722 74.9688 103.632 75.1556C103.275 75.6227 102.917 76.1831 102.56 76.6502C102.471 76.837 102.381 76.837 102.203 76.837ZM104.436 73.9412C104.347 73.9412 104.258 73.9412 104.168 73.8478C103.99 73.7544 103.99 73.4742 104.079 73.2874C104.436 72.8203 104.883 72.3532 105.24 71.7928C105.33 71.6059 105.598 71.6059 105.777 71.6994C105.955 71.7928 105.955 72.073 105.866 72.2598C105.509 72.7269 105.151 73.194 104.704 73.661C104.704 73.8478 104.615 73.9412 104.436 73.9412ZM106.759 71.0455C106.67 71.0455 106.581 71.0455 106.491 70.9521C106.313 70.8586 106.313 70.5784 106.491 70.3916C106.938 69.9245 107.295 69.4575 107.653 68.9904C107.742 68.8036 108.01 68.8036 108.189 68.9904C108.368 69.1772 108.368 69.364 108.189 69.5509C107.832 70.0179 107.385 70.485 107.027 70.9521C106.938 71.0455 106.849 71.0455 106.759 71.0455ZM109.172 68.3365C109.082 68.3365 108.993 68.3365 108.904 68.2431C108.725 68.0563 108.725 67.8694 108.904 67.6826C109.44 67.1221 109.887 66.6551 110.333 66.3748C110.512 66.2814 110.691 66.2814 110.869 66.4682C110.959 66.6551 110.959 66.8419 110.78 67.0287C110.423 67.309 109.976 67.6826 109.44 68.2431C109.35 68.2431 109.261 68.3365 109.172 68.3365Z" fill="#CCC6BA"/>
<path d="M136.871 125.224C136.692 125.224 136.513 125.131 136.513 124.944C136.424 124.477 136.335 124.01 136.245 123.543C136.156 123.356 136.335 123.169 136.513 123.076C136.692 122.983 136.871 123.169 136.96 123.356C137.05 123.823 137.228 124.384 137.228 124.851C137.228 124.944 137.139 125.131 136.871 125.224ZM135.977 121.955C135.799 121.955 135.709 121.862 135.62 121.768C135.441 121.208 135.173 120.647 134.905 120.087C134.816 119.9 134.905 119.713 135.084 119.62C135.263 119.526 135.441 119.62 135.531 119.807C135.799 120.367 136.067 120.928 136.335 121.488C136.424 121.675 136.335 121.862 136.156 121.955C136.067 121.955 136.067 121.955 135.977 121.955ZM134.369 118.686C134.28 118.686 134.101 118.592 134.101 118.499C133.744 117.938 133.476 117.471 133.118 117.004C133.029 116.817 133.029 116.631 133.208 116.444C133.386 116.35 133.565 116.35 133.744 116.537C134.101 117.004 134.458 117.565 134.726 118.125C134.816 118.312 134.816 118.499 134.637 118.686C134.458 118.686 134.458 118.686 134.369 118.686ZM132.314 115.603C132.225 115.603 132.135 115.51 132.046 115.416C131.689 114.856 131.242 114.389 130.885 114.015C130.795 113.828 130.795 113.641 130.885 113.455C131.063 113.361 131.242 113.361 131.421 113.455C131.778 113.922 132.135 114.389 132.582 114.949C132.672 115.136 132.672 115.323 132.493 115.51C132.403 115.603 132.403 115.603 132.314 115.603ZM129.902 112.801C129.812 112.801 129.723 112.801 129.634 112.707C129.187 112.24 128.919 111.96 128.919 111.96L128.74 111.773L128.83 111.586C128.919 111.306 129.008 111.119 129.098 110.839C129.187 110.652 129.366 110.559 129.544 110.652C129.723 110.746 129.812 110.932 129.723 111.119C129.634 111.306 129.634 111.399 129.544 111.586C129.634 111.68 129.902 111.96 130.17 112.24C130.348 112.427 130.259 112.614 130.17 112.801C130.08 112.801 129.991 112.801 129.902 112.801ZM130.08 109.625C129.991 109.625 129.991 109.625 129.902 109.625C129.723 109.531 129.634 109.344 129.723 109.158C129.991 108.597 130.17 108.037 130.438 107.476C130.527 107.289 130.706 107.196 130.885 107.289C131.063 107.383 131.153 107.57 131.063 107.756C130.795 108.317 130.617 108.877 130.348 109.438C130.438 109.531 130.259 109.625 130.08 109.625ZM131.599 106.168C131.51 106.168 131.51 106.168 131.421 106.168C131.242 106.075 131.153 105.888 131.242 105.701C131.51 105.141 131.778 104.58 132.046 104.02C132.135 103.833 132.314 103.74 132.493 103.833C132.672 103.926 132.761 104.113 132.672 104.3C132.403 104.861 132.135 105.421 131.867 105.982C131.867 106.168 131.778 106.168 131.599 106.168ZM133.297 102.899C133.208 102.899 133.208 102.899 133.118 102.805C132.94 102.712 132.85 102.432 133.029 102.338C133.297 101.778 133.654 101.217 133.922 100.75C134.012 100.564 134.28 100.564 134.458 100.657C134.637 100.75 134.637 101.031 134.548 101.217C134.28 101.778 133.922 102.245 133.654 102.805C133.565 102.805 133.386 102.899 133.297 102.899ZM135.173 99.7229C135.084 99.7229 134.995 99.7229 134.995 99.6295C134.816 99.536 134.816 99.2558 134.905 99.069C135.263 98.5085 135.531 98.0414 135.888 97.481C135.977 97.2941 136.245 97.2941 136.424 97.3876C136.603 97.481 136.603 97.7612 136.513 97.948C136.156 98.4151 135.888 98.9756 135.531 99.5361C135.441 99.6295 135.263 99.7229 135.173 99.7229ZM137.228 96.6403C137.139 96.6403 137.05 96.6403 137.05 96.5468C136.871 96.4534 136.871 96.1732 136.96 95.9864C137.318 95.5193 137.675 94.9588 138.032 94.4918C138.122 94.3049 138.39 94.305 138.568 94.3984C138.747 94.4918 138.747 94.772 138.658 94.9588C138.3 95.4259 137.943 95.893 137.586 96.4534C137.407 96.6403 137.318 96.6403 137.228 96.6403ZM139.373 93.7445C139.283 93.7445 139.194 93.7445 139.105 93.6511C138.926 93.5577 138.926 93.2774 139.015 93.0906C139.373 92.6235 139.819 92.1565 140.177 91.6894C140.266 91.5026 140.534 91.5026 140.713 91.6894C140.891 91.7828 140.891 92.0631 140.713 92.2499C140.355 92.7169 139.909 93.184 139.551 93.6511C139.641 93.6511 139.551 93.7445 139.373 93.7445ZM141.785 90.9421C141.696 90.9421 141.606 90.9421 141.517 90.8487C141.338 90.6619 141.338 90.475 141.517 90.2882C141.964 89.8211 142.321 89.3541 142.768 88.887C142.946 88.7002 143.125 88.7002 143.304 88.887C143.483 89.0738 143.483 89.2607 143.304 89.4475C142.857 89.9146 142.5 90.2882 142.053 90.7553C141.964 90.8487 141.874 90.9421 141.785 90.9421ZM144.287 88.2331C144.197 88.2331 144.108 88.2331 144.019 88.1397C143.84 87.9529 143.929 87.7661 144.019 87.5792C144.465 87.1122 144.912 86.7385 145.359 86.2715C145.537 86.1781 145.716 86.1781 145.895 86.2715C145.984 86.4583 145.984 86.6451 145.895 86.8319C145.448 87.2056 145.001 87.6727 144.555 88.1397C144.465 88.2331 144.376 88.2331 144.287 88.2331ZM146.967 85.711C146.878 85.711 146.788 85.711 146.699 85.6176C146.61 85.4308 146.61 85.2439 146.699 85.0571C147.146 84.59 147.682 84.2164 148.129 83.8427C148.307 83.7493 148.486 83.7493 148.665 83.9362C148.754 84.123 148.754 84.3098 148.575 84.4966C148.129 84.8703 147.682 85.2439 147.235 85.711C147.056 85.711 147.056 85.711 146.967 85.711ZM149.737 83.3757C149.647 83.3757 149.558 83.2823 149.469 83.1889C149.379 83.002 149.379 82.8152 149.558 82.6284C150.094 82.2547 150.541 81.8811 150.988 81.5074C151.166 81.414 151.345 81.414 151.524 81.6008C151.613 81.7877 151.613 81.9745 151.434 82.1613C150.988 82.4416 150.541 82.8152 150.005 83.2823C149.915 83.3757 149.826 83.3757 149.737 83.3757ZM152.685 81.3206C152.596 81.3206 152.417 81.2272 152.417 81.1338C152.328 80.947 152.328 80.7601 152.507 80.5733C153.489 79.9194 154.025 79.6392 154.115 79.6392C154.294 79.5458 154.472 79.6392 154.562 79.826C154.651 80.0128 154.562 80.1997 154.383 80.2931C154.383 80.2931 153.847 80.5733 152.864 81.2272C152.775 81.2272 152.775 81.3206 152.685 81.3206Z" fill="#CCC6BA"/>
<path d="M93.8044 82.3472C93.7151 82.3472 93.6257 82.3472 93.5364 82.2538C93.3577 82.1604 93.3577 81.8801 93.5364 81.6933L94.6979 80.2921C94.7872 80.1053 95.0553 80.1053 95.234 80.2921C95.4126 80.3855 95.4126 80.6658 95.234 80.8526L94.0724 82.2538C93.9831 82.2538 93.8937 82.3472 93.8044 82.3472ZM96.1274 79.5448C96.0381 79.5448 95.9487 79.5448 95.8594 79.4514C95.6807 79.358 95.6807 79.0777 95.8594 78.8909L97.0209 77.4897C97.1102 77.3029 97.3783 77.3029 97.557 77.4897C97.7357 77.5831 97.7357 77.8634 97.557 78.0502L96.3955 79.4514C96.3955 79.4514 96.2168 79.5448 96.1274 79.5448ZM98.5398 76.649C98.4505 76.649 98.3611 76.649 98.2718 76.5556C98.0931 76.4622 98.0931 76.182 98.2718 75.9951L99.4333 74.5939C99.5226 74.4071 99.7907 74.4071 99.9694 74.5939C100.148 74.6874 100.148 74.9676 99.9694 75.1544L98.8078 76.5556C98.7185 76.649 98.6291 76.649 98.5398 76.649ZM100.863 73.8466C100.773 73.8466 100.684 73.8466 100.595 73.7532C100.416 73.6598 100.416 73.3796 100.595 73.1928L101.756 71.7916C101.846 71.6047 102.114 71.6047 102.292 71.7916C102.471 71.885 102.471 72.1652 102.292 72.352L101.131 73.7532C101.042 73.8466 100.952 73.8466 100.863 73.8466ZM103.186 71.0443C103.097 71.0443 103.007 71.0443 102.918 70.9509C102.739 70.8574 102.739 70.5772 102.918 70.3904L104.079 68.9892C104.169 68.8024 104.437 68.8024 104.615 68.9892C104.794 69.0826 104.794 69.3628 104.615 69.5497L103.454 70.9509C103.365 71.0443 103.275 71.0443 103.186 71.0443ZM105.598 68.2419C105.509 68.2419 105.42 68.2419 105.33 68.1485C105.151 68.0551 105.151 67.7748 105.33 67.588L106.492 66.1868C106.581 66 106.849 66 107.028 66.1868C107.206 66.2802 107.206 66.5605 107.028 66.7473L105.866 68.1485C105.777 68.2419 105.688 68.2419 105.598 68.2419ZM107.921 65.4395C107.832 65.4395 107.743 65.4395 107.653 65.3461C107.475 65.2527 107.475 64.9725 107.653 64.7856L108.815 63.3844C108.904 63.1976 109.172 63.1976 109.351 63.3844C109.529 63.4779 109.529 63.7581 109.351 63.9449L108.189 65.3461C108.1 65.3461 108.011 65.4395 107.921 65.4395Z" fill="#CCC6BA"/>
<path d="M65.1234 47.879L57.9756 37.7905C58.5117 35.4552 58.7797 32.933 58.6904 30.4109C58.4223 13.7835 45.5564 0.612305 29.7419 0.612305C13.8381 0.612305 0.882812 14.1571 0.882812 30.7845C0.882812 47.412 13.6594 60.8634 29.5632 60.9568C38.4979 61.0502 46.5392 56.8466 51.9 50.2144L64.2299 49.5605C65.1234 49.7473 65.6594 48.6263 65.1234 47.879Z" fill="#F9E9BD"/>
<path d="M29.8317 55.912C43.0562 55.912 53.7768 44.7037 53.7768 30.8774C53.7768 17.0512 43.0562 5.8429 29.8317 5.8429C16.6073 5.8429 5.88672 17.0512 5.88672 30.8774C5.88672 44.7037 16.6073 55.912 29.8317 55.912Z" fill="white"/>
</svg>
