<svg width="122" height="219" viewBox="0 0 122 219" fill="none" xmlns="http://www.w3.org/2000/svg">
<path d="M47.0202 73.4209C43.6902 79.4358 22.7585 81.177 14.3541 94.3148C5.79117 107.453 1.66827 128.505 1.35112 132.62C1.03397 136.894 22.5999 150.349 22.5999 150.349C22.5999 150.349 20.6971 181.373 19.2699 193.244C17.8427 205.116 16.5741 211.922 17.367 212.081C18.1599 212.397 38.7744 215.721 56.376 213.98C74.1362 212.239 90.1521 208.44 97.2879 204.799L116 146.866C116 146.866 121.074 146.075 121.391 144.65C121.708 143.226 116.317 124.864 115.524 120.432C114.731 116 114.572 99.8549 106.485 90.8325C98.5565 81.8101 95.8607 82.285 89.0421 79.4358C82.2235 76.5867 75.4048 73.4209 75.4048 73.4209H47.0202Z" fill="#2F8AB2"/>
<path d="M99.1916 198.468L89.3601 147.975C89.3601 147.975 57.6455 150.191 52.5711 148.766C47.4968 147.341 45.1182 147.025 41.471 147.975C37.8238 148.924 36.3967 155.256 31.9566 153.356C27.6751 151.457 26.7237 150.191 19.2707 148.449C21.1736 149.716 22.4422 150.507 22.4422 150.507C22.4422 150.507 20.5393 181.531 19.1122 193.403C17.685 205.275 16.4164 212.081 17.2093 212.239C18.0022 212.556 38.6167 215.88 56.2183 214.139C73.9785 212.397 89.9944 208.599 97.1302 204.958L99.1916 198.468Z" fill="#FFB865"/>
<path d="M70.0138 57.2759C70.4895 60.4417 71.441 64.3989 72.3924 67.4063C73.3439 70.5721 75.2467 73.7378 75.2467 73.7378C75.2467 73.7378 73.3439 79.4362 66.6838 80.8608C60.0237 82.2854 53.3636 79.4362 51.1436 77.3784C49.0822 75.3207 51.7779 54.4268 51.7779 54.4268L70.0138 57.2759Z" fill="#824F47"/>
<g opacity="0.17">
<path d="M72.5504 67.8796C72.5504 67.7213 72.3919 67.563 72.3919 67.4048C71.4404 64.239 70.489 60.4401 70.0133 57.2744L58.4374 55.5332H51.7773V55.6915L52.5702 60.5984C55.1074 64.3973 60.4989 66.2967 65.8904 67.4048C69.0618 68.0379 71.2819 68.0379 72.5504 67.8796Z" fill="#404CA1"/>
</g>
<path d="M27.5183 3.29929C31.4827 -0.0247509 39.0942 -1.9242 43.6928 2.98271C47.8157 7.41476 47.1814 12.1634 47.1814 15.804C47.1814 18.9697 47.9743 21.3441 47.9743 21.3441L43.8514 28.3087C43.8514 28.3087 40.6799 25.4595 35.2884 24.0349C29.8969 22.6104 26.884 21.1858 24.5054 17.3869C22.2854 13.4297 23.0783 7.09818 27.5183 3.29929Z" fill="#153745"/>
<path d="M67.3202 24.9836C66.8444 22.451 63.5144 18.6521 58.5986 18.1772C53.5243 17.7024 47.6571 19.2853 43.6927 24.0339C39.7284 28.7825 38.9356 34.6391 40.6799 39.3878C42.2656 44.1364 50.3528 49.5182 50.3528 49.5182L67.3202 24.9836Z" fill="#153745"/>
<path d="M67.6376 24.9839C70.492 28.7828 74.932 36.064 75.7249 41.2875C76.5177 46.6692 76.042 51.8927 73.3463 55.375C70.6505 58.6991 66.8448 59.8071 63.039 59.8071C59.2333 59.8071 51.7803 57.7493 51.7803 57.7493C51.7803 57.7493 46.8645 41.4457 46.5474 35.5891C46.2303 29.7325 49.4017 26.725 52.0975 24.9839C54.7932 23.2427 59.3918 21.9764 61.7704 21.8181C64.3076 21.5015 66.369 23.401 67.6376 24.9839Z" fill="#8E6159"/>
<path d="M57.807 38.7554C58.1241 39.3885 57.9656 39.8634 57.4899 40.0217C57.0141 40.18 56.697 40.0217 56.3798 39.3885C56.0627 38.7554 56.2213 38.2805 56.697 38.1222C57.1727 37.8057 57.4899 38.1222 57.807 38.7554Z" fill="black"/>
<path d="M71.1273 33.688C71.4445 34.3212 71.2859 34.796 70.8102 34.9543C70.3344 35.1126 70.0173 34.9543 69.7002 34.3212C69.383 33.688 69.5416 33.2131 70.0173 33.0549C70.493 32.7383 70.8102 33.0549 71.1273 33.688Z" fill="black"/>
<path d="M52.7322 37.4897C52.5737 37.4897 52.4151 37.4897 52.4151 37.3314C52.0979 37.1731 52.0979 36.6982 52.2565 36.3817C53.2079 35.1154 56.2208 33.5325 58.5994 33.0576C58.9166 33.0576 59.2337 33.2159 59.3923 33.5325C59.3923 33.8491 59.2337 34.1656 58.9166 34.3239C56.8551 34.6405 54.1594 36.0651 53.3665 37.1731C53.2079 37.3314 53.0494 37.4897 52.7322 37.4897Z" fill="black"/>
<path d="M65.5769 32.5807C65.4183 32.5807 65.2597 32.5807 65.1011 32.4225C64.784 32.1059 64.784 31.7893 65.1011 31.4727C66.3697 30.2064 69.2241 29.0984 70.9684 29.415C71.2855 29.415 71.6026 29.7316 71.6026 30.0481C71.6026 30.3647 71.2855 30.6813 70.9684 30.6813C69.3826 30.523 67.004 31.4727 66.0526 32.4225C65.894 32.5807 65.7354 32.5807 65.5769 32.5807Z" fill="black"/>
<mask id="mask0_1_320" style="mask-type:luminance" maskUnits="userSpaceOnUse" x="64" y="35" width="6" height="8">
<path d="M67.3202 42.076H67.1616C67.003 41.9177 67.003 41.7594 67.1616 41.7594C68.113 40.8097 69.3816 39.0686 69.0645 38.5937C68.9059 38.2771 68.113 37.9605 67.3202 37.644C66.3687 37.3274 65.4173 37.0108 64.783 36.3777C64.6244 36.2194 64.6244 36.0611 64.783 36.0611C64.9416 35.9028 65.1001 35.9028 65.1001 36.0611C65.5759 36.536 66.5273 36.8525 67.4787 37.1691C68.4302 37.4857 69.223 37.8023 69.5402 38.2771C70.0159 39.3851 67.9545 41.6012 67.4787 42.076C67.4787 42.076 67.3202 42.076 67.3202 42.076Z" fill="white"/>
</mask>
<g mask="url(#mask0_1_320)">
<path d="M64.9421 35.7451H64.625V42.0766H64.9421V35.7451Z" fill="#5C3543"/>
</g>
<mask id="mask1_1_320" style="mask-type:luminance" maskUnits="userSpaceOnUse" x="64" y="35" width="6" height="8">
<path d="M67.3202 42.076H67.1616C67.003 41.9177 67.003 41.7594 67.1616 41.7594C68.113 40.8097 69.3816 39.0686 69.0645 38.5937C68.9059 38.2771 68.113 37.9605 67.3202 37.644C66.3687 37.3274 65.4173 37.0108 64.783 36.3777C64.6244 36.2194 64.6244 36.0611 64.783 36.0611C64.9416 35.9028 65.1001 35.9028 65.1001 36.0611C65.5759 36.536 66.5273 36.8525 67.4787 37.1691C68.4302 37.4857 69.223 37.8023 69.5402 38.2771C70.0159 39.3851 67.9545 41.6012 67.4787 42.076C67.4787 42.076 67.3202 42.076 67.3202 42.076Z" fill="white"/>
</mask>
<g mask="url(#mask1_1_320)">
<path d="M65.2585 35.7451H64.9414V42.0766H65.2585V35.7451Z" fill="#5D3642"/>
</g>
<mask id="mask2_1_320" style="mask-type:luminance" maskUnits="userSpaceOnUse" x="64" y="35" width="6" height="8">
<path d="M67.3202 42.076H67.1616C67.003 41.9177 67.003 41.7594 67.1616 41.7594C68.113 40.8097 69.3816 39.0686 69.0645 38.5937C68.9059 38.2771 68.113 37.9605 67.3202 37.644C66.3687 37.3274 65.4173 37.0108 64.783 36.3777C64.6244 36.2194 64.6244 36.0611 64.783 36.0611C64.9416 35.9028 65.1001 35.9028 65.1001 36.0611C65.5759 36.536 66.5273 36.8525 67.4787 37.1691C68.4302 37.4857 69.223 37.8023 69.5402 38.2771C70.0159 39.3851 67.9545 41.6012 67.4787 42.076C67.4787 42.076 67.3202 42.076 67.3202 42.076Z" fill="white"/>
</mask>
<g mask="url(#mask2_1_320)">
<path d="M65.7351 35.7451H65.418V42.0766H65.7351V35.7451Z" fill="#5E3741"/>
</g>
<mask id="mask3_1_320" style="mask-type:luminance" maskUnits="userSpaceOnUse" x="64" y="35" width="6" height="8">
<path d="M67.3202 42.076H67.1616C67.003 41.9177 67.003 41.7594 67.1616 41.7594C68.113 40.8097 69.3816 39.0686 69.0645 38.5937C68.9059 38.2771 68.113 37.9605 67.3202 37.644C66.3687 37.3274 65.4173 37.0108 64.783 36.3777C64.6244 36.2194 64.6244 36.0611 64.783 36.0611C64.9416 35.9028 65.1001 35.9028 65.1001 36.0611C65.5759 36.536 66.5273 36.8525 67.4787 37.1691C68.4302 37.4857 69.223 37.8023 69.5402 38.2771C70.0159 39.3851 67.9545 41.6012 67.4787 42.076C67.4787 42.076 67.3202 42.076 67.3202 42.076Z" fill="white"/>
</mask>
<g mask="url(#mask3_1_320)">
<path d="M66.0515 35.7451H65.7344V42.0766H66.0515V35.7451Z" fill="#5F3841"/>
</g>
<mask id="mask4_1_320" style="mask-type:luminance" maskUnits="userSpaceOnUse" x="64" y="35" width="6" height="8">
<path d="M67.3202 42.076H67.1616C67.003 41.9177 67.003 41.7594 67.1616 41.7594C68.113 40.8097 69.3816 39.0686 69.0645 38.5937C68.9059 38.2771 68.113 37.9605 67.3202 37.644C66.3687 37.3274 65.4173 37.0108 64.783 36.3777C64.6244 36.2194 64.6244 36.0611 64.783 36.0611C64.9416 35.9028 65.1001 35.9028 65.1001 36.0611C65.5759 36.536 66.5273 36.8525 67.4787 37.1691C68.4302 37.4857 69.223 37.8023 69.5402 38.2771C70.0159 39.3851 67.9545 41.6012 67.4787 42.076C67.4787 42.076 67.3202 42.076 67.3202 42.076Z" fill="white"/>
</mask>
<g mask="url(#mask4_1_320)">
<path d="M66.5281 35.7451H66.2109V42.0766H66.5281V35.7451Z" fill="#603840"/>
</g>
<mask id="mask5_1_320" style="mask-type:luminance" maskUnits="userSpaceOnUse" x="64" y="35" width="6" height="8">
<path d="M67.3202 42.076H67.1616C67.003 41.9177 67.003 41.7594 67.1616 41.7594C68.113 40.8097 69.3816 39.0686 69.0645 38.5937C68.9059 38.2771 68.113 37.9605 67.3202 37.644C66.3687 37.3274 65.4173 37.0108 64.783 36.3777C64.6244 36.2194 64.6244 36.0611 64.783 36.0611C64.9416 35.9028 65.1001 35.9028 65.1001 36.0611C65.5759 36.536 66.5273 36.8525 67.4787 37.1691C68.4302 37.4857 69.223 37.8023 69.5402 38.2771C70.0159 39.3851 67.9545 41.6012 67.4787 42.076C67.4787 42.076 67.3202 42.076 67.3202 42.076Z" fill="white"/>
</mask>
<g mask="url(#mask5_1_320)">
<path d="M66.8445 35.7451H66.5273V42.0766H66.8445V35.7451Z" fill="#61393F"/>
</g>
<mask id="mask6_1_320" style="mask-type:luminance" maskUnits="userSpaceOnUse" x="64" y="35" width="6" height="8">
<path d="M67.3202 42.076H67.1616C67.003 41.9177 67.003 41.7594 67.1616 41.7594C68.113 40.8097 69.3816 39.0686 69.0645 38.5937C68.9059 38.2771 68.113 37.9605 67.3202 37.644C66.3687 37.3274 65.4173 37.0108 64.783 36.3777C64.6244 36.2194 64.6244 36.0611 64.783 36.0611C64.9416 35.9028 65.1001 35.9028 65.1001 36.0611C65.5759 36.536 66.5273 36.8525 67.4787 37.1691C68.4302 37.4857 69.223 37.8023 69.5402 38.2771C70.0159 39.3851 67.9545 41.6012 67.4787 42.076C67.4787 42.076 67.3202 42.076 67.3202 42.076Z" fill="white"/>
</mask>
<g mask="url(#mask6_1_320)">
<path d="M67.1609 35.7451H66.8438V42.0766H67.1609V35.7451Z" fill="#633A3E"/>
</g>
<mask id="mask7_1_320" style="mask-type:luminance" maskUnits="userSpaceOnUse" x="64" y="35" width="6" height="8">
<path d="M67.3202 42.076H67.1616C67.003 41.9177 67.003 41.7594 67.1616 41.7594C68.113 40.8097 69.3816 39.0686 69.0645 38.5937C68.9059 38.2771 68.113 37.9605 67.3202 37.644C66.3687 37.3274 65.4173 37.0108 64.783 36.3777C64.6244 36.2194 64.6244 36.0611 64.783 36.0611C64.9416 35.9028 65.1001 35.9028 65.1001 36.0611C65.5759 36.536 66.5273 36.8525 67.4787 37.1691C68.4302 37.4857 69.223 37.8023 69.5402 38.2771C70.0159 39.3851 67.9545 41.6012 67.4787 42.076C67.4787 42.076 67.3202 42.076 67.3202 42.076Z" fill="white"/>
</mask>
<g mask="url(#mask7_1_320)">
<path d="M67.6375 35.7451H67.3203V42.0766H67.6375V35.7451Z" fill="#643B3D"/>
</g>
<mask id="mask8_1_320" style="mask-type:luminance" maskUnits="userSpaceOnUse" x="64" y="35" width="6" height="8">
<path d="M67.3202 42.076H67.1616C67.003 41.9177 67.003 41.7594 67.1616 41.7594C68.113 40.8097 69.3816 39.0686 69.0645 38.5937C68.9059 38.2771 68.113 37.9605 67.3202 37.644C66.3687 37.3274 65.4173 37.0108 64.783 36.3777C64.6244 36.2194 64.6244 36.0611 64.783 36.0611C64.9416 35.9028 65.1001 35.9028 65.1001 36.0611C65.5759 36.536 66.5273 36.8525 67.4787 37.1691C68.4302 37.4857 69.223 37.8023 69.5402 38.2771C70.0159 39.3851 67.9545 41.6012 67.4787 42.076C67.4787 42.076 67.3202 42.076 67.3202 42.076Z" fill="white"/>
</mask>
<g mask="url(#mask8_1_320)">
<path d="M67.9539 35.7451H67.6367V42.0766H67.9539V35.7451Z" fill="#653C3C"/>
</g>
<mask id="mask9_1_320" style="mask-type:luminance" maskUnits="userSpaceOnUse" x="64" y="35" width="6" height="8">
<path d="M67.3202 42.076H67.1616C67.003 41.9177 67.003 41.7594 67.1616 41.7594C68.113 40.8097 69.3816 39.0686 69.0645 38.5937C68.9059 38.2771 68.113 37.9605 67.3202 37.644C66.3687 37.3274 65.4173 37.0108 64.783 36.3777C64.6244 36.2194 64.6244 36.0611 64.783 36.0611C64.9416 35.9028 65.1001 35.9028 65.1001 36.0611C65.5759 36.536 66.5273 36.8525 67.4787 37.1691C68.4302 37.4857 69.223 37.8023 69.5402 38.2771C70.0159 39.3851 67.9545 41.6012 67.4787 42.076C67.4787 42.076 67.3202 42.076 67.3202 42.076Z" fill="white"/>
</mask>
<g mask="url(#mask9_1_320)">
<path d="M68.4304 35.7451H68.1133V42.0766H68.4304V35.7451Z" fill="#663D3C"/>
</g>
<mask id="mask10_1_320" style="mask-type:luminance" maskUnits="userSpaceOnUse" x="64" y="35" width="6" height="8">
<path d="M67.3202 42.076H67.1616C67.003 41.9177 67.003 41.7594 67.1616 41.7594C68.113 40.8097 69.3816 39.0686 69.0645 38.5937C68.9059 38.2771 68.113 37.9605 67.3202 37.644C66.3687 37.3274 65.4173 37.0108 64.783 36.3777C64.6244 36.2194 64.6244 36.0611 64.783 36.0611C64.9416 35.9028 65.1001 35.9028 65.1001 36.0611C65.5759 36.536 66.5273 36.8525 67.4787 37.1691C68.4302 37.4857 69.223 37.8023 69.5402 38.2771C70.0159 39.3851 67.9545 41.6012 67.4787 42.076C67.4787 42.076 67.3202 42.076 67.3202 42.076Z" fill="white"/>
</mask>
<g mask="url(#mask10_1_320)">
<path d="M68.7468 35.7451H68.4297V42.0766H68.7468V35.7451Z" fill="#673D3B"/>
</g>
<mask id="mask11_1_320" style="mask-type:luminance" maskUnits="userSpaceOnUse" x="64" y="35" width="6" height="8">
<path d="M67.3202 42.076H67.1616C67.003 41.9177 67.003 41.7594 67.1616 41.7594C68.113 40.8097 69.3816 39.0686 69.0645 38.5937C68.9059 38.2771 68.113 37.9605 67.3202 37.644C66.3687 37.3274 65.4173 37.0108 64.783 36.3777C64.6244 36.2194 64.6244 36.0611 64.783 36.0611C64.9416 35.9028 65.1001 35.9028 65.1001 36.0611C65.5759 36.536 66.5273 36.8525 67.4787 37.1691C68.4302 37.4857 69.223 37.8023 69.5402 38.2771C70.0159 39.3851 67.9545 41.6012 67.4787 42.076C67.4787 42.076 67.3202 42.076 67.3202 42.076Z" fill="white"/>
</mask>
<g mask="url(#mask11_1_320)">
<path d="M69.2234 35.7451H68.9062V42.0766H69.2234V35.7451Z" fill="#683E3A"/>
</g>
<mask id="mask12_1_320" style="mask-type:luminance" maskUnits="userSpaceOnUse" x="64" y="35" width="6" height="8">
<path d="M67.3202 42.076H67.1616C67.003 41.9177 67.003 41.7594 67.1616 41.7594C68.113 40.8097 69.3816 39.0686 69.0645 38.5937C68.9059 38.2771 68.113 37.9605 67.3202 37.644C66.3687 37.3274 65.4173 37.0108 64.783 36.3777C64.6244 36.2194 64.6244 36.0611 64.783 36.0611C64.9416 35.9028 65.1001 35.9028 65.1001 36.0611C65.5759 36.536 66.5273 36.8525 67.4787 37.1691C68.4302 37.4857 69.223 37.8023 69.5402 38.2771C70.0159 39.3851 67.9545 41.6012 67.4787 42.076C67.4787 42.076 67.3202 42.076 67.3202 42.076Z" fill="white"/>
</mask>
<g mask="url(#mask12_1_320)">
<path d="M69.5398 35.7451H69.2227V42.0766H69.5398V35.7451Z" fill="#693F39"/>
</g>
<mask id="mask13_1_320" style="mask-type:luminance" maskUnits="userSpaceOnUse" x="64" y="35" width="6" height="8">
<path d="M67.3202 42.076H67.1616C67.003 41.9177 67.003 41.7594 67.1616 41.7594C68.113 40.8097 69.3816 39.0686 69.0645 38.5937C68.9059 38.2771 68.113 37.9605 67.3202 37.644C66.3687 37.3274 65.4173 37.0108 64.783 36.3777C64.6244 36.2194 64.6244 36.0611 64.783 36.0611C64.9416 35.9028 65.1001 35.9028 65.1001 36.0611C65.5759 36.536 66.5273 36.8525 67.4787 37.1691C68.4302 37.4857 69.223 37.8023 69.5402 38.2771C70.0159 39.3851 67.9545 41.6012 67.4787 42.076C67.4787 42.076 67.3202 42.076 67.3202 42.076Z" fill="white"/>
</mask>
<g mask="url(#mask13_1_320)">
<path d="M70.0167 35.7451H69.541V42.0766H70.0167V35.7451Z" fill="#693F39"/>
</g>
<path d="M61.6112 47.9347C61.4526 46.6684 64.6241 46.3519 67.1612 45.2439C69.6984 44.2941 71.1256 42.7113 71.7599 43.5027C72.2356 44.4524 72.7113 47.9347 70.0156 49.8342C67.3198 51.7336 61.9283 50.4673 61.6112 47.9347Z" fill="white"/>
<path d="M66.8442 51.1001C65.5756 51.1001 64.307 50.7835 63.3556 50.3087C62.087 49.6755 61.4527 48.8841 61.2941 47.9343C61.1356 46.668 62.7213 46.1932 64.7828 45.7183C65.5756 45.56 66.3685 45.2435 67.1614 44.9269C68.1128 44.6103 68.9057 44.1354 69.6985 43.6606C70.65 43.1857 71.1257 42.8691 71.76 42.8691C71.9186 42.8691 72.0771 43.0274 72.2357 43.344C72.87 44.452 73.1871 48.2509 70.3328 50.1504C69.2228 50.9418 67.9542 51.1001 66.8442 51.1001ZM71.2843 43.6606C70.9671 43.6606 70.4914 43.9772 69.8571 44.2937C69.2228 44.6103 68.2714 45.2435 67.3199 45.56C66.5271 45.8766 65.7342 46.0349 64.9413 46.3515C63.5142 46.8263 61.9284 47.3012 61.9284 47.9343C61.9284 48.5675 62.5627 49.2006 63.5142 49.6755C65.2585 50.4669 67.9542 50.6252 69.6985 49.5172C72.3943 47.9343 71.76 44.452 71.2843 43.6606C71.4428 43.6606 71.4428 43.6606 71.2843 43.6606Z" fill="#DF6D59"/>
<g opacity="0.36">
<path d="M58.2803 49.5182C56.8531 50.3096 55.5846 49.5182 54.4745 47.4605C53.3645 45.4027 53.5231 43.9781 54.9503 43.1867C56.3774 42.3953 57.646 43.1867 58.756 45.2444C59.866 47.3022 59.7075 48.7268 58.2803 49.5182Z" fill="#F49A86"/>
</g>
<g opacity="0.36">
<path d="M75.7233 41.2902C75.4061 39.5491 74.7718 37.4913 73.8204 35.4336C72.3932 35.9085 71.9175 37.1748 72.3932 39.3908C72.869 41.7651 73.979 42.7148 75.5647 42.3982C75.7233 42.3982 75.7233 42.3982 75.8819 42.3982C75.8819 41.9234 75.7233 41.6068 75.7233 41.2902Z" fill="#F49A86"/>
</g>
<path d="M89.5181 151.457C89.5181 151.457 95.861 151.932 103.631 150.666C111.401 149.4 115.841 147.025 115.841 147.025C115.841 147.025 117.586 176.942 116.158 189.763C114.573 203.217 112.194 213.664 99.3497 218.255L93.9582 207.016C93.9582 207.016 90.6281 211.448 87.7738 212.398C85.0781 213.348 82.3823 211.448 82.2238 210.815C81.9066 210.182 86.1881 206.383 87.6152 202.901C89.5181 197.677 92.8482 196.886 93.4824 194.512C94.1167 192.296 92.6896 182.165 91.5796 174.093C90.4696 165.862 89.5181 151.457 89.5181 151.457Z" fill="#824F47"/>
<mask id="mask14_1_320" style="mask-type:luminance" maskUnits="userSpaceOnUse" x="93" y="202" width="6" height="6">
<path d="M94.1156 207.176C93.957 207.176 93.957 207.018 94.1156 207.176C93.957 207.018 93.957 207.018 93.957 206.86C97.6042 202.903 98.2385 202.428 98.2385 202.428C98.2385 202.428 98.3971 202.428 98.5556 202.428C98.5556 202.428 98.5556 202.586 98.5556 202.744C98.3971 202.586 97.7628 203.219 94.1156 207.176C94.1156 207.176 94.1156 207.018 94.1156 207.176Z" fill="white"/>
</mask>
<g mask="url(#mask14_1_320)">
<path d="M94.2742 202.27H93.957V207.018H94.2742V202.27Z" fill="#5C3543"/>
</g>
<mask id="mask15_1_320" style="mask-type:luminance" maskUnits="userSpaceOnUse" x="93" y="202" width="6" height="6">
<path d="M94.1156 207.176C93.957 207.176 93.957 207.018 94.1156 207.176C93.957 207.018 93.957 207.018 93.957 206.86C97.6042 202.903 98.2385 202.428 98.2385 202.428C98.2385 202.428 98.3971 202.428 98.5556 202.428C98.5556 202.428 98.5556 202.586 98.5556 202.744C98.3971 202.586 97.7628 203.219 94.1156 207.176C94.1156 207.176 94.1156 207.018 94.1156 207.176Z" fill="white"/>
</mask>
<g mask="url(#mask15_1_320)">
<path d="M94.5925 202.27H94.2754V207.018H94.5925V202.27Z" fill="#5D3642"/>
</g>
<mask id="mask16_1_320" style="mask-type:luminance" maskUnits="userSpaceOnUse" x="93" y="202" width="6" height="6">
<path d="M94.1156 207.176C93.957 207.176 93.957 207.018 94.1156 207.176C93.957 207.018 93.957 207.018 93.957 206.86C97.6042 202.903 98.2385 202.428 98.2385 202.428C98.2385 202.428 98.3971 202.428 98.5556 202.428C98.5556 202.428 98.5556 202.586 98.5556 202.744C98.3971 202.586 97.7628 203.219 94.1156 207.176C94.1156 207.176 94.1156 207.018 94.1156 207.176Z" fill="white"/>
</mask>
<g mask="url(#mask16_1_320)">
<path d="M94.909 202.27H94.5918V207.018H94.909V202.27Z" fill="#5E3741"/>
</g>
<mask id="mask17_1_320" style="mask-type:luminance" maskUnits="userSpaceOnUse" x="93" y="202" width="6" height="6">
<path d="M94.1156 207.176C93.957 207.176 93.957 207.018 94.1156 207.176C93.957 207.018 93.957 207.018 93.957 206.86C97.6042 202.903 98.2385 202.428 98.2385 202.428C98.2385 202.428 98.3971 202.428 98.5556 202.428C98.5556 202.428 98.5556 202.586 98.5556 202.744C98.3971 202.586 97.7628 203.219 94.1156 207.176C94.1156 207.176 94.1156 207.018 94.1156 207.176Z" fill="white"/>
</mask>
<g mask="url(#mask17_1_320)">
<path d="M95.2253 202.27H94.9082V207.018H95.2253V202.27Z" fill="#5F3841"/>
</g>
<mask id="mask18_1_320" style="mask-type:luminance" maskUnits="userSpaceOnUse" x="93" y="202" width="6" height="6">
<path d="M94.1156 207.176C93.957 207.176 93.957 207.018 94.1156 207.176C93.957 207.018 93.957 207.018 93.957 206.86C97.6042 202.903 98.2385 202.428 98.2385 202.428C98.2385 202.428 98.3971 202.428 98.5556 202.428C98.5556 202.428 98.5556 202.586 98.5556 202.744C98.3971 202.586 97.7628 203.219 94.1156 207.176C94.1156 207.176 94.1156 207.018 94.1156 207.176Z" fill="white"/>
</mask>
<g mask="url(#mask18_1_320)">
<path d="M95.7019 202.27H95.3848V207.018H95.7019V202.27Z" fill="#603840"/>
</g>
<mask id="mask19_1_320" style="mask-type:luminance" maskUnits="userSpaceOnUse" x="93" y="202" width="6" height="6">
<path d="M94.1156 207.176C93.957 207.176 93.957 207.018 94.1156 207.176C93.957 207.018 93.957 207.018 93.957 206.86C97.6042 202.903 98.2385 202.428 98.2385 202.428C98.2385 202.428 98.3971 202.428 98.5556 202.428C98.5556 202.428 98.5556 202.586 98.5556 202.744C98.3971 202.586 97.7628 203.219 94.1156 207.176C94.1156 207.176 94.1156 207.018 94.1156 207.176Z" fill="white"/>
</mask>
<g mask="url(#mask19_1_320)">
<path d="M96.0183 202.27H95.7012V207.018H96.0183V202.27Z" fill="#61393F"/>
</g>
<mask id="mask20_1_320" style="mask-type:luminance" maskUnits="userSpaceOnUse" x="93" y="202" width="6" height="6">
<path d="M94.1156 207.176C93.957 207.176 93.957 207.018 94.1156 207.176C93.957 207.018 93.957 207.018 93.957 206.86C97.6042 202.903 98.2385 202.428 98.2385 202.428C98.2385 202.428 98.3971 202.428 98.5556 202.428C98.5556 202.428 98.5556 202.586 98.5556 202.744C98.3971 202.586 97.7628 203.219 94.1156 207.176C94.1156 207.176 94.1156 207.018 94.1156 207.176Z" fill="white"/>
</mask>
<g mask="url(#mask20_1_320)">
<path d="M96.3347 202.27H96.0176V207.018H96.3347V202.27Z" fill="#633A3E"/>
</g>
<mask id="mask21_1_320" style="mask-type:luminance" maskUnits="userSpaceOnUse" x="93" y="202" width="6" height="6">
<path d="M94.1156 207.176C93.957 207.176 93.957 207.018 94.1156 207.176C93.957 207.018 93.957 207.018 93.957 206.86C97.6042 202.903 98.2385 202.428 98.2385 202.428C98.2385 202.428 98.3971 202.428 98.5556 202.428C98.5556 202.428 98.5556 202.586 98.5556 202.744C98.3971 202.586 97.7628 203.219 94.1156 207.176C94.1156 207.176 94.1156 207.018 94.1156 207.176Z" fill="white"/>
</mask>
<g mask="url(#mask21_1_320)">
<path d="M96.6531 202.27H96.3359V207.018H96.6531V202.27Z" fill="#643B3D"/>
</g>
<mask id="mask22_1_320" style="mask-type:luminance" maskUnits="userSpaceOnUse" x="93" y="202" width="6" height="6">
<path d="M94.1156 207.176C93.957 207.176 93.957 207.018 94.1156 207.176C93.957 207.018 93.957 207.018 93.957 206.86C97.6042 202.903 98.2385 202.428 98.2385 202.428C98.2385 202.428 98.3971 202.428 98.5556 202.428C98.5556 202.428 98.5556 202.586 98.5556 202.744C98.3971 202.586 97.7628 203.219 94.1156 207.176C94.1156 207.176 94.1156 207.018 94.1156 207.176Z" fill="white"/>
</mask>
<g mask="url(#mask22_1_320)">
<path d="M97.1277 202.27H96.8105V207.018H97.1277V202.27Z" fill="#653C3C"/>
</g>
<mask id="mask23_1_320" style="mask-type:luminance" maskUnits="userSpaceOnUse" x="93" y="202" width="6" height="6">
<path d="M94.1156 207.176C93.957 207.176 93.957 207.018 94.1156 207.176C93.957 207.018 93.957 207.018 93.957 206.86C97.6042 202.903 98.2385 202.428 98.2385 202.428C98.2385 202.428 98.3971 202.428 98.5556 202.428C98.5556 202.428 98.5556 202.586 98.5556 202.744C98.3971 202.586 97.7628 203.219 94.1156 207.176C94.1156 207.176 94.1156 207.018 94.1156 207.176Z" fill="white"/>
</mask>
<g mask="url(#mask23_1_320)">
<path d="M97.446 202.27H97.1289V207.018H97.446V202.27Z" fill="#663D3C"/>
</g>
<mask id="mask24_1_320" style="mask-type:luminance" maskUnits="userSpaceOnUse" x="93" y="202" width="6" height="6">
<path d="M94.1156 207.176C93.957 207.176 93.957 207.018 94.1156 207.176C93.957 207.018 93.957 207.018 93.957 206.86C97.6042 202.903 98.2385 202.428 98.2385 202.428C98.2385 202.428 98.3971 202.428 98.5556 202.428C98.5556 202.428 98.5556 202.586 98.5556 202.744C98.3971 202.586 97.7628 203.219 94.1156 207.176C94.1156 207.176 94.1156 207.018 94.1156 207.176Z" fill="white"/>
</mask>
<g mask="url(#mask24_1_320)">
<path d="M97.7625 202.27H97.4453V207.018H97.7625V202.27Z" fill="#673D3B"/>
</g>
<mask id="mask25_1_320" style="mask-type:luminance" maskUnits="userSpaceOnUse" x="93" y="202" width="6" height="6">
<path d="M94.1156 207.176C93.957 207.176 93.957 207.018 94.1156 207.176C93.957 207.018 93.957 207.018 93.957 206.86C97.6042 202.903 98.2385 202.428 98.2385 202.428C98.2385 202.428 98.3971 202.428 98.5556 202.428C98.5556 202.428 98.5556 202.586 98.5556 202.744C98.3971 202.586 97.7628 203.219 94.1156 207.176C94.1156 207.176 94.1156 207.018 94.1156 207.176Z" fill="white"/>
</mask>
<g mask="url(#mask25_1_320)">
<path d="M98.0808 202.27H97.7637V207.018H98.0808V202.27Z" fill="#683E3A"/>
</g>
<mask id="mask26_1_320" style="mask-type:luminance" maskUnits="userSpaceOnUse" x="93" y="202" width="6" height="6">
<path d="M94.1156 207.176C93.957 207.176 93.957 207.018 94.1156 207.176C93.957 207.018 93.957 207.018 93.957 206.86C97.6042 202.903 98.2385 202.428 98.2385 202.428C98.2385 202.428 98.3971 202.428 98.5556 202.428C98.5556 202.428 98.5556 202.586 98.5556 202.744C98.3971 202.586 97.7628 203.219 94.1156 207.176C94.1156 207.176 94.1156 207.018 94.1156 207.176Z" fill="white"/>
</mask>
<g mask="url(#mask26_1_320)">
<path d="M98.5554 202.27H98.2383V207.018H98.5554V202.27Z" fill="#693F39"/>
</g>
<path d="M86.981 209.706C87.7738 208.123 86.8224 207.015 85.8709 206.065C84.1266 208.281 82.2238 210.181 82.3823 210.656C82.5409 211.131 83.6509 211.922 85.0781 212.397C85.5538 211.922 86.3467 210.814 86.981 209.706Z" fill="#E99C8E"/>
<path d="M89.52 151.614C89.3615 151.614 89.3615 151.614 89.3615 151.456C88.8857 141.642 89.0443 124.547 89.52 115.366C89.9957 106.661 91.4229 100.646 91.4229 100.487C91.4229 100.329 91.5815 100.329 91.5815 100.329C91.7401 100.329 91.7401 100.487 91.7401 100.487C91.7401 100.487 90.3129 106.661 89.8372 115.208C89.3615 124.389 89.2029 141.484 89.6786 151.298C89.6786 151.456 89.52 151.614 89.52 151.614Z" fill="black"/>
<path d="M89.6781 125.021C89.5195 125.021 89.5195 124.863 89.5195 124.863C90.6295 118.373 92.691 113.783 94.4353 109.984C95.0696 108.559 95.7039 107.135 96.1796 105.71C96.1796 105.552 96.3382 105.552 96.3382 105.552C96.4968 105.552 96.4968 105.71 96.4968 105.71C96.021 106.976 95.3867 108.401 94.5939 109.984C92.8496 113.783 90.6295 118.531 89.6781 124.863C89.8367 124.863 89.6781 125.021 89.6781 125.021Z" fill="black"/>
<path d="M114.416 141.642C114.258 141.642 114.258 141.484 114.258 141.484C115.051 137.527 115.368 129.929 115.209 120.748C115.209 120.59 115.209 120.59 115.368 120.59C115.526 120.59 115.526 120.748 115.526 120.748C115.685 129.929 115.368 137.527 114.575 141.484L114.416 141.642Z" fill="black"/>
<path d="M45.5931 149.554C42.1044 144.331 36.713 133.567 34.1758 126.444C34.1758 126.286 34.1758 126.286 34.3344 126.286C34.4929 126.286 34.4929 126.286 34.4929 126.444C37.0301 133.567 42.4216 144.331 45.7516 149.396C45.7516 149.396 45.7516 149.554 45.5931 149.554Z" fill="black"/>
<path d="M36.3977 163.009C36.3977 163.009 36.2391 163.009 36.2391 162.851C34.3363 157.469 30.8477 145.281 30.8477 138.791C30.8477 138.633 31.0062 138.633 31.0062 138.633C31.1648 138.633 31.1648 138.791 31.1648 138.791C31.1648 145.281 34.6534 157.311 36.5563 162.692C36.5563 162.851 36.5563 163.009 36.3977 163.009Z" fill="black"/>
<path d="M52.5717 71.9949C52.4131 67.088 47.9731 54.5833 47.9731 54.5833L43.3745 45.2443C41.7887 46.0358 40.6787 38.9128 38.7758 41.6037C38.3001 42.3951 37.6658 43.1866 37.1901 43.978C37.1901 43.8197 37.0315 43.6614 37.0315 43.5032C36.5558 42.0786 35.1287 41.762 33.8601 41.762C32.5915 41.762 32.5915 43.3449 32.9086 45.086C33.2258 46.6689 33.7015 48.8849 33.8601 51.7341C33.2258 54.8999 33.0672 59.6485 33.8601 64.0805C34.8115 69.1457 36.2387 71.2035 35.1287 73.8943C34.0187 76.7435 26.8829 94.9466 19.5885 106.343C12.1355 117.898 7.53692 123.438 3.73117 130.72L0.876844 132.461C0.876844 132.461 -2.92891 145.599 5.3169 151.297C13.7213 156.995 24.6628 155.571 32.4329 142.433C40.203 129.295 46.5459 101.911 48.766 92.5722C51.3031 83.5499 52.7303 76.9018 52.5717 71.9949Z" fill="#8E6159"/>
<path d="M36.713 38.755L45.4345 37.8053C46.5445 37.647 47.6545 38.2802 47.9717 39.3882L56.376 64.2393C56.6932 65.0308 56.0589 65.8222 55.266 65.9805L46.2274 66.7719C45.1173 66.9302 44.1659 66.1388 43.6902 65.189L35.7615 40.3379C35.2858 39.7048 35.9201 38.9133 36.713 38.755Z" fill="#FDC639"/>
<path d="M56.2185 64.3975L47.8141 39.5464C47.497 38.4384 46.387 37.8052 45.2769 37.9635L36.5554 38.9132C36.3968 38.9132 36.3969 38.9132 36.2383 38.9132L44.4841 37.9635C45.5941 37.8052 46.7041 38.4384 47.0213 39.5464L55.4256 64.3975C55.5842 65.0307 55.2671 65.8221 54.6328 65.9804H55.1085C55.9014 65.9804 56.5356 65.189 56.2185 64.3975Z" fill="#FEDF91"/>
<path d="M35.2871 47.7771C36.2385 45.0862 37.0314 43.3451 38.4586 41.4456C39.8857 39.7045 42.2643 37.4884 43.3743 37.0136C44.4844 36.3804 45.5944 36.2221 46.0701 36.697C47.0215 37.6467 46.2287 38.7547 46.2287 38.7547C46.2287 38.7547 47.3387 38.4382 47.8144 39.8628C48.2901 41.2873 46.863 42.8702 45.4358 43.9782C45.4358 43.9782 47.973 42.8702 48.7658 43.8199C49.5587 44.7697 49.7173 45.8777 48.1315 47.4605C46.5458 49.0434 45.2772 50.1514 45.2772 50.1514C45.2772 50.1514 43.3743 54.5835 42.1058 56.0081C42.1058 56.0081 42.2643 57.4327 43.2158 59.6487C44.3258 61.8647 47.6558 66.1385 47.3387 70.7288C47.0215 75.3191 45.4358 77.8517 45.4358 77.8517L39.5686 73.4197L35.2871 47.7771Z" fill="#8E6159"/>
<mask id="mask27_1_320" style="mask-type:luminance" maskUnits="userSpaceOnUse" x="46" y="66" width="2" height="10">
<path d="M46.8656 75.319C46.8656 75.319 46.707 75.319 46.8656 75.319C46.707 75.319 46.707 75.1607 46.707 75.0024C47.6585 72.9447 47.4999 69.1458 46.8656 66.9298C46.8656 66.7715 46.8656 66.7715 47.0242 66.7715C47.1827 66.7715 47.1828 66.7715 47.1828 66.9298C47.9756 69.1458 47.9756 73.2613 47.0242 75.319C47.0242 75.319 46.8656 75.319 46.8656 75.319Z" fill="white"/>
</mask>
<g mask="url(#mask27_1_320)">
<path d="M46.8656 66.7715H46.707V75.319H46.8656V66.7715Z" fill="#5C3543"/>
</g>
<mask id="mask28_1_320" style="mask-type:luminance" maskUnits="userSpaceOnUse" x="46" y="66" width="2" height="10">
<path d="M46.8656 75.319C46.8656 75.319 46.707 75.319 46.8656 75.319C46.707 75.319 46.707 75.1607 46.707 75.0024C47.6585 72.9447 47.4999 69.1458 46.8656 66.9298C46.8656 66.7715 46.8656 66.7715 47.0242 66.7715C47.1827 66.7715 47.1828 66.7715 47.1828 66.9298C47.9756 69.1458 47.9756 73.2613 47.0242 75.319C47.0242 75.319 46.8656 75.319 46.8656 75.319Z" fill="white"/>
</mask>
<g mask="url(#mask28_1_320)">
<path d="M46.8656 66.7715H46.707V75.319H46.8656V66.7715Z" fill="#5D3642"/>
</g>
<mask id="mask29_1_320" style="mask-type:luminance" maskUnits="userSpaceOnUse" x="46" y="66" width="2" height="10">
<path d="M46.8656 75.319C46.8656 75.319 46.707 75.319 46.8656 75.319C46.707 75.319 46.707 75.1607 46.707 75.0024C47.6585 72.9447 47.4999 69.1458 46.8656 66.9298C46.8656 66.7715 46.8656 66.7715 47.0242 66.7715C47.1827 66.7715 47.1828 66.7715 47.1828 66.9298C47.9756 69.1458 47.9756 73.2613 47.0242 75.319C47.0242 75.319 46.8656 75.319 46.8656 75.319Z" fill="white"/>
</mask>
<g mask="url(#mask29_1_320)">
<path d="M47.0238 66.7715H46.8652V75.319H47.0238V66.7715Z" fill="#5E3741"/>
</g>
<mask id="mask30_1_320" style="mask-type:luminance" maskUnits="userSpaceOnUse" x="46" y="66" width="2" height="10">
<path d="M46.8656 75.319C46.8656 75.319 46.707 75.319 46.8656 75.319C46.707 75.319 46.707 75.1607 46.707 75.0024C47.6585 72.9447 47.4999 69.1458 46.8656 66.9298C46.8656 66.7715 46.8656 66.7715 47.0242 66.7715C47.1827 66.7715 47.1828 66.7715 47.1828 66.9298C47.9756 69.1458 47.9756 73.2613 47.0242 75.319C47.0242 75.319 46.8656 75.319 46.8656 75.319Z" fill="white"/>
</mask>
<g mask="url(#mask30_1_320)">
<path d="M47.0238 66.7715H46.8652V75.319H47.0238V66.7715Z" fill="#5F3841"/>
</g>
<mask id="mask31_1_320" style="mask-type:luminance" maskUnits="userSpaceOnUse" x="46" y="66" width="2" height="10">
<path d="M46.8656 75.319C46.8656 75.319 46.707 75.319 46.8656 75.319C46.707 75.319 46.707 75.1607 46.707 75.0024C47.6585 72.9447 47.4999 69.1458 46.8656 66.9298C46.8656 66.7715 46.8656 66.7715 47.0242 66.7715C47.1827 66.7715 47.1828 66.7715 47.1828 66.9298C47.9756 69.1458 47.9756 73.2613 47.0242 75.319C47.0242 75.319 46.8656 75.319 46.8656 75.319Z" fill="white"/>
</mask>
<g mask="url(#mask31_1_320)">
<path d="M47.182 66.7715H47.0234V75.319H47.182V66.7715Z" fill="#603840"/>
</g>
<mask id="mask32_1_320" style="mask-type:luminance" maskUnits="userSpaceOnUse" x="46" y="66" width="2" height="10">
<path d="M46.8656 75.319C46.8656 75.319 46.707 75.319 46.8656 75.319C46.707 75.319 46.707 75.1607 46.707 75.0024C47.6585 72.9447 47.4999 69.1458 46.8656 66.9298C46.8656 66.7715 46.8656 66.7715 47.0242 66.7715C47.1827 66.7715 47.1828 66.7715 47.1828 66.9298C47.9756 69.1458 47.9756 73.2613 47.0242 75.319C47.0242 75.319 46.8656 75.319 46.8656 75.319Z" fill="white"/>
</mask>
<g mask="url(#mask32_1_320)">
<path d="M47.182 66.7715H47.0234V75.319H47.182V66.7715Z" fill="#61393F"/>
</g>
<mask id="mask33_1_320" style="mask-type:luminance" maskUnits="userSpaceOnUse" x="46" y="66" width="2" height="10">
<path d="M46.8656 75.319C46.8656 75.319 46.707 75.319 46.8656 75.319C46.707 75.319 46.707 75.1607 46.707 75.0024C47.6585 72.9447 47.4999 69.1458 46.8656 66.9298C46.8656 66.7715 46.8656 66.7715 47.0242 66.7715C47.1827 66.7715 47.1828 66.7715 47.1828 66.9298C47.9756 69.1458 47.9756 73.2613 47.0242 75.319C47.0242 75.319 46.8656 75.319 46.8656 75.319Z" fill="white"/>
</mask>
<g mask="url(#mask33_1_320)">
<path d="M47.3402 66.7715H47.1816V75.319H47.3402V66.7715Z" fill="#633A3E"/>
</g>
<mask id="mask34_1_320" style="mask-type:luminance" maskUnits="userSpaceOnUse" x="46" y="66" width="2" height="10">
<path d="M46.8656 75.319C46.8656 75.319 46.707 75.319 46.8656 75.319C46.707 75.319 46.707 75.1607 46.707 75.0024C47.6585 72.9447 47.4999 69.1458 46.8656 66.9298C46.8656 66.7715 46.8656 66.7715 47.0242 66.7715C47.1827 66.7715 47.1828 66.7715 47.1828 66.9298C47.9756 69.1458 47.9756 73.2613 47.0242 75.319C47.0242 75.319 46.8656 75.319 46.8656 75.319Z" fill="white"/>
</mask>
<g mask="url(#mask34_1_320)">
<path d="M47.3402 66.7715H47.1816V75.319H47.3402V66.7715Z" fill="#643B3D"/>
</g>
<mask id="mask35_1_320" style="mask-type:luminance" maskUnits="userSpaceOnUse" x="46" y="66" width="2" height="10">
<path d="M46.8656 75.319C46.8656 75.319 46.707 75.319 46.8656 75.319C46.707 75.319 46.707 75.1607 46.707 75.0024C47.6585 72.9447 47.4999 69.1458 46.8656 66.9298C46.8656 66.7715 46.8656 66.7715 47.0242 66.7715C47.1827 66.7715 47.1828 66.7715 47.1828 66.9298C47.9756 69.1458 47.9756 73.2613 47.0242 75.319C47.0242 75.319 46.8656 75.319 46.8656 75.319Z" fill="white"/>
</mask>
<g mask="url(#mask35_1_320)">
<path d="M47.4984 66.7715H47.3398V75.319H47.4984V66.7715Z" fill="#653C3C"/>
</g>
<mask id="mask36_1_320" style="mask-type:luminance" maskUnits="userSpaceOnUse" x="46" y="66" width="2" height="10">
<path d="M46.8656 75.319C46.8656 75.319 46.707 75.319 46.8656 75.319C46.707 75.319 46.707 75.1607 46.707 75.0024C47.6585 72.9447 47.4999 69.1458 46.8656 66.9298C46.8656 66.7715 46.8656 66.7715 47.0242 66.7715C47.1827 66.7715 47.1828 66.7715 47.1828 66.9298C47.9756 69.1458 47.9756 73.2613 47.0242 75.319C47.0242 75.319 46.8656 75.319 46.8656 75.319Z" fill="white"/>
</mask>
<g mask="url(#mask36_1_320)">
<path d="M47.4984 66.7715H47.3398V75.319H47.4984V66.7715Z" fill="#663D3C"/>
</g>
<mask id="mask37_1_320" style="mask-type:luminance" maskUnits="userSpaceOnUse" x="46" y="66" width="2" height="10">
<path d="M46.8656 75.319C46.8656 75.319 46.707 75.319 46.8656 75.319C46.707 75.319 46.707 75.1607 46.707 75.0024C47.6585 72.9447 47.4999 69.1458 46.8656 66.9298C46.8656 66.7715 46.8656 66.7715 47.0242 66.7715C47.1827 66.7715 47.1828 66.7715 47.1828 66.9298C47.9756 69.1458 47.9756 73.2613 47.0242 75.319C47.0242 75.319 46.8656 75.319 46.8656 75.319Z" fill="white"/>
</mask>
<g mask="url(#mask37_1_320)">
<path d="M47.6586 66.7715H47.5V75.319H47.6586V66.7715Z" fill="#673D3B"/>
</g>
<mask id="mask38_1_320" style="mask-type:luminance" maskUnits="userSpaceOnUse" x="46" y="66" width="2" height="10">
<path d="M46.8656 75.319C46.8656 75.319 46.707 75.319 46.8656 75.319C46.707 75.319 46.707 75.1607 46.707 75.0024C47.6585 72.9447 47.4999 69.1458 46.8656 66.9298C46.8656 66.7715 46.8656 66.7715 47.0242 66.7715C47.1827 66.7715 47.1828 66.7715 47.1828 66.9298C47.9756 69.1458 47.9756 73.2613 47.0242 75.319C47.0242 75.319 46.8656 75.319 46.8656 75.319Z" fill="white"/>
</mask>
<g mask="url(#mask38_1_320)">
<path d="M47.6586 66.7715H47.5V75.319H47.6586V66.7715Z" fill="#683E3A"/>
</g>
<mask id="mask39_1_320" style="mask-type:luminance" maskUnits="userSpaceOnUse" x="46" y="66" width="2" height="10">
<path d="M46.8656 75.319C46.8656 75.319 46.707 75.319 46.8656 75.319C46.707 75.319 46.707 75.1607 46.707 75.0024C47.6585 72.9447 47.4999 69.1458 46.8656 66.9298C46.8656 66.7715 46.8656 66.7715 47.0242 66.7715C47.1827 66.7715 47.1828 66.7715 47.1828 66.9298C47.9756 69.1458 47.9756 73.2613 47.0242 75.319C47.0242 75.319 46.8656 75.319 46.8656 75.319Z" fill="white"/>
</mask>
<g mask="url(#mask39_1_320)">
<path d="M47.8168 66.7715H47.6582V75.319H47.8168V66.7715Z" fill="#693F39"/>
</g>
<mask id="mask40_1_320" style="mask-type:luminance" maskUnits="userSpaceOnUse" x="46" y="66" width="2" height="10">
<path d="M46.8656 75.319C46.8656 75.319 46.707 75.319 46.8656 75.319C46.707 75.319 46.707 75.1607 46.707 75.0024C47.6585 72.9447 47.4999 69.1458 46.8656 66.9298C46.8656 66.7715 46.8656 66.7715 47.0242 66.7715C47.1827 66.7715 47.1828 66.7715 47.1828 66.9298C47.9756 69.1458 47.9756 73.2613 47.0242 75.319C47.0242 75.319 46.8656 75.319 46.8656 75.319Z" fill="white"/>
</mask>
<g mask="url(#mask40_1_320)">
<path d="M47.9754 66.7715H47.6582V75.319H47.9754V66.7715Z" fill="#693F39"/>
</g>
<path d="M33.5425 47.1435C34.0183 46.9852 34.494 46.6686 34.9697 46.0355C35.7626 45.0858 35.2868 43.1863 34.9697 41.7617C34.6525 41.7617 34.3354 41.7617 34.0183 41.7617C32.7497 41.92 32.7497 43.3446 33.0668 45.0858C33.2254 45.7189 33.384 46.3521 33.5425 47.1435Z" fill="#E99C8E"/>
<path d="M41.9453 38.1205C42.2625 39.0703 43.6896 39.7034 44.1653 39.7034C44.3239 39.7034 44.3239 39.7034 44.4825 39.5451C43.6896 40.02 42.8967 40.6531 42.8967 40.6531C42.7382 41.2863 43.3725 42.3943 44.3239 42.8692C45.1168 43.1857 46.5439 42.3943 47.4954 41.7611C47.8125 41.128 47.8125 40.6531 47.6539 40.02C47.1782 38.5954 46.0682 38.912 46.0682 38.912C46.0682 38.912 46.8611 37.9622 45.9096 36.8542C45.4339 36.3794 44.3239 36.5377 43.2139 37.1708C43.0553 37.3291 42.421 37.6457 41.9453 38.1205Z" fill="#E99C8E"/>
<path d="M48.7653 43.8195C48.2895 43.1863 47.3381 43.3446 46.5452 43.5029C45.7524 43.9778 44.9595 44.7692 45.1181 45.5606C45.4352 46.6687 46.8624 46.8269 47.9724 46.3521C48.6067 46.1938 48.9238 45.8772 49.0824 45.7189C49.5581 45.0858 49.241 44.4526 48.7653 43.8195Z" fill="#E99C8E"/>
<mask id="mask41_1_320" style="mask-type:luminance" maskUnits="userSpaceOnUse" x="37" y="43" width="9" height="12">
<path d="M37.35 54.7441C37.35 54.7441 37.1914 54.7441 37.35 54.7441C37.1914 54.7441 37.1914 54.5858 37.1914 54.5858C37.1914 54.4275 37.6671 52.3698 39.0943 49.8372C40.9972 46.6714 44.1686 44.6137 45.4372 43.8223C45.5958 43.8223 45.5958 43.8223 45.7544 43.8223C45.7544 43.9806 45.7544 43.9805 45.7544 44.1388C44.4858 44.9303 41.3143 46.988 39.57 49.9955C38.1428 52.5281 37.6671 54.7441 37.6671 54.7441C37.5086 54.7441 37.35 54.7441 37.35 54.7441Z" fill="white"/>
</mask>
<g mask="url(#mask41_1_320)">
<path d="M37.8257 43.6641H37.1914V54.7442H37.8257V43.6641Z" fill="#5C3543"/>
</g>
<mask id="mask42_1_320" style="mask-type:luminance" maskUnits="userSpaceOnUse" x="37" y="43" width="9" height="12">
<path d="M37.35 54.7441C37.35 54.7441 37.1914 54.7441 37.35 54.7441C37.1914 54.7441 37.1914 54.5858 37.1914 54.5858C37.1914 54.4275 37.6671 52.3698 39.0943 49.8372C40.9972 46.6714 44.1686 44.6137 45.4372 43.8223C45.5958 43.8223 45.5958 43.8223 45.7544 43.8223C45.7544 43.9806 45.7544 43.9805 45.7544 44.1388C44.4858 44.9303 41.3143 46.988 39.57 49.9955C38.1428 52.5281 37.6671 54.7441 37.6671 54.7441C37.5086 54.7441 37.35 54.7441 37.35 54.7441Z" fill="white"/>
</mask>
<g mask="url(#mask42_1_320)">
<path d="M38.4585 43.6641H37.8242V54.7442H38.4585V43.6641Z" fill="#5D3642"/>
</g>
<mask id="mask43_1_320" style="mask-type:luminance" maskUnits="userSpaceOnUse" x="37" y="43" width="9" height="12">
<path d="M37.35 54.7441C37.35 54.7441 37.1914 54.7441 37.35 54.7441C37.1914 54.7441 37.1914 54.5858 37.1914 54.5858C37.1914 54.4275 37.6671 52.3698 39.0943 49.8372C40.9972 46.6714 44.1686 44.6137 45.4372 43.8223C45.5958 43.8223 45.5958 43.8223 45.7544 43.8223C45.7544 43.9806 45.7544 43.9805 45.7544 44.1388C44.4858 44.9303 41.3143 46.988 39.57 49.9955C38.1428 52.5281 37.6671 54.7441 37.6671 54.7441C37.5086 54.7441 37.35 54.7441 37.35 54.7441Z" fill="white"/>
</mask>
<g mask="url(#mask43_1_320)">
<path d="M39.0952 43.6641H38.4609V54.7442H39.0952V43.6641Z" fill="#5E3741"/>
</g>
<mask id="mask44_1_320" style="mask-type:luminance" maskUnits="userSpaceOnUse" x="37" y="43" width="9" height="12">
<path d="M37.35 54.7441C37.35 54.7441 37.1914 54.7441 37.35 54.7441C37.1914 54.7441 37.1914 54.5858 37.1914 54.5858C37.1914 54.4275 37.6671 52.3698 39.0943 49.8372C40.9972 46.6714 44.1686 44.6137 45.4372 43.8223C45.5958 43.8223 45.5958 43.8223 45.7544 43.8223C45.7544 43.9806 45.7544 43.9805 45.7544 44.1388C44.4858 44.9303 41.3143 46.988 39.57 49.9955C38.1428 52.5281 37.6671 54.7441 37.6671 54.7441C37.5086 54.7441 37.35 54.7441 37.35 54.7441Z" fill="white"/>
</mask>
<g mask="url(#mask44_1_320)">
<path d="M39.728 43.6641H39.0938V54.7442H39.728V43.6641Z" fill="#5F3841"/>
</g>
<mask id="mask45_1_320" style="mask-type:luminance" maskUnits="userSpaceOnUse" x="37" y="43" width="9" height="12">
<path d="M37.35 54.7441C37.35 54.7441 37.1914 54.7441 37.35 54.7441C37.1914 54.7441 37.1914 54.5858 37.1914 54.5858C37.1914 54.4275 37.6671 52.3698 39.0943 49.8372C40.9972 46.6714 44.1686 44.6137 45.4372 43.8223C45.5958 43.8223 45.5958 43.8223 45.7544 43.8223C45.7544 43.9806 45.7544 43.9805 45.7544 44.1388C44.4858 44.9303 41.3143 46.988 39.57 49.9955C38.1428 52.5281 37.6671 54.7441 37.6671 54.7441C37.5086 54.7441 37.35 54.7441 37.35 54.7441Z" fill="white"/>
</mask>
<g mask="url(#mask45_1_320)">
<path d="M40.3628 43.6641H39.7285V54.7442H40.3628V43.6641Z" fill="#603840"/>
</g>
<mask id="mask46_1_320" style="mask-type:luminance" maskUnits="userSpaceOnUse" x="37" y="43" width="9" height="12">
<path d="M37.35 54.7441C37.35 54.7441 37.1914 54.7441 37.35 54.7441C37.1914 54.7441 37.1914 54.5858 37.1914 54.5858C37.1914 54.4275 37.6671 52.3698 39.0943 49.8372C40.9972 46.6714 44.1686 44.6137 45.4372 43.8223C45.5958 43.8223 45.5958 43.8223 45.7544 43.8223C45.7544 43.9806 45.7544 43.9805 45.7544 44.1388C44.4858 44.9303 41.3143 46.988 39.57 49.9955C38.1428 52.5281 37.6671 54.7441 37.6671 54.7441C37.5086 54.7441 37.35 54.7441 37.35 54.7441Z" fill="white"/>
</mask>
<g mask="url(#mask46_1_320)">
<path d="M40.9976 43.6641H40.3633V54.7442H40.9976V43.6641Z" fill="#61393F"/>
</g>
<mask id="mask47_1_320" style="mask-type:luminance" maskUnits="userSpaceOnUse" x="37" y="43" width="9" height="12">
<path d="M37.35 54.7441C37.35 54.7441 37.1914 54.7441 37.35 54.7441C37.1914 54.7441 37.1914 54.5858 37.1914 54.5858C37.1914 54.4275 37.6671 52.3698 39.0943 49.8372C40.9972 46.6714 44.1686 44.6137 45.4372 43.8223C45.5958 43.8223 45.5958 43.8223 45.7544 43.8223C45.7544 43.9806 45.7544 43.9805 45.7544 44.1388C44.4858 44.9303 41.3143 46.988 39.57 49.9955C38.1428 52.5281 37.6671 54.7441 37.6671 54.7441C37.5086 54.7441 37.35 54.7441 37.35 54.7441Z" fill="white"/>
</mask>
<g mask="url(#mask47_1_320)">
<path d="M41.6304 43.6641H40.9961V54.7442H41.6304V43.6641Z" fill="#633A3E"/>
</g>
<mask id="mask48_1_320" style="mask-type:luminance" maskUnits="userSpaceOnUse" x="37" y="43" width="9" height="12">
<path d="M37.35 54.7441C37.35 54.7441 37.1914 54.7441 37.35 54.7441C37.1914 54.7441 37.1914 54.5858 37.1914 54.5858C37.1914 54.4275 37.6671 52.3698 39.0943 49.8372C40.9972 46.6714 44.1686 44.6137 45.4372 43.8223C45.5958 43.8223 45.5958 43.8223 45.7544 43.8223C45.7544 43.9806 45.7544 43.9805 45.7544 44.1388C44.4858 44.9303 41.3143 46.988 39.57 49.9955C38.1428 52.5281 37.6671 54.7441 37.6671 54.7441C37.5086 54.7441 37.35 54.7441 37.35 54.7441Z" fill="white"/>
</mask>
<g mask="url(#mask48_1_320)">
<path d="M42.2651 43.6641H41.6309V54.7442H42.2651V43.6641Z" fill="#643B3D"/>
</g>
<mask id="mask49_1_320" style="mask-type:luminance" maskUnits="userSpaceOnUse" x="37" y="43" width="9" height="12">
<path d="M37.35 54.7441C37.35 54.7441 37.1914 54.7441 37.35 54.7441C37.1914 54.7441 37.1914 54.5858 37.1914 54.5858C37.1914 54.4275 37.6671 52.3698 39.0943 49.8372C40.9972 46.6714 44.1686 44.6137 45.4372 43.8223C45.5958 43.8223 45.5958 43.8223 45.7544 43.8223C45.7544 43.9806 45.7544 43.9805 45.7544 44.1388C44.4858 44.9303 41.3143 46.988 39.57 49.9955C38.1428 52.5281 37.6671 54.7441 37.6671 54.7441C37.5086 54.7441 37.35 54.7441 37.35 54.7441Z" fill="white"/>
</mask>
<g mask="url(#mask49_1_320)">
<path d="M43.0581 43.6641H42.4238V54.7442H43.0581V43.6641Z" fill="#653C3C"/>
</g>
<mask id="mask50_1_320" style="mask-type:luminance" maskUnits="userSpaceOnUse" x="37" y="43" width="9" height="12">
<path d="M37.35 54.7441C37.35 54.7441 37.1914 54.7441 37.35 54.7441C37.1914 54.7441 37.1914 54.5858 37.1914 54.5858C37.1914 54.4275 37.6671 52.3698 39.0943 49.8372C40.9972 46.6714 44.1686 44.6137 45.4372 43.8223C45.5958 43.8223 45.5958 43.8223 45.7544 43.8223C45.7544 43.9806 45.7544 43.9805 45.7544 44.1388C44.4858 44.9303 41.3143 46.988 39.57 49.9955C38.1428 52.5281 37.6671 54.7441 37.6671 54.7441C37.5086 54.7441 37.35 54.7441 37.35 54.7441Z" fill="white"/>
</mask>
<g mask="url(#mask50_1_320)">
<path d="M43.6929 43.6641H43.0586V54.7442H43.6929V43.6641Z" fill="#663D3C"/>
</g>
<mask id="mask51_1_320" style="mask-type:luminance" maskUnits="userSpaceOnUse" x="37" y="43" width="9" height="12">
<path d="M37.35 54.7441C37.35 54.7441 37.1914 54.7441 37.35 54.7441C37.1914 54.7441 37.1914 54.5858 37.1914 54.5858C37.1914 54.4275 37.6671 52.3698 39.0943 49.8372C40.9972 46.6714 44.1686 44.6137 45.4372 43.8223C45.5958 43.8223 45.5958 43.8223 45.7544 43.8223C45.7544 43.9806 45.7544 43.9805 45.7544 44.1388C44.4858 44.9303 41.3143 46.988 39.57 49.9955C38.1428 52.5281 37.6671 54.7441 37.6671 54.7441C37.5086 54.7441 37.35 54.7441 37.35 54.7441Z" fill="white"/>
</mask>
<g mask="url(#mask51_1_320)">
<path d="M44.3257 43.6641H43.6914V54.7442H44.3257V43.6641Z" fill="#673D3B"/>
</g>
<mask id="mask52_1_320" style="mask-type:luminance" maskUnits="userSpaceOnUse" x="37" y="43" width="9" height="12">
<path d="M37.35 54.7441C37.35 54.7441 37.1914 54.7441 37.35 54.7441C37.1914 54.7441 37.1914 54.5858 37.1914 54.5858C37.1914 54.4275 37.6671 52.3698 39.0943 49.8372C40.9972 46.6714 44.1686 44.6137 45.4372 43.8223C45.5958 43.8223 45.5958 43.8223 45.7544 43.8223C45.7544 43.9806 45.7544 43.9805 45.7544 44.1388C44.4858 44.9303 41.3143 46.988 39.57 49.9955C38.1428 52.5281 37.6671 54.7441 37.6671 54.7441C37.5086 54.7441 37.35 54.7441 37.35 54.7441Z" fill="white"/>
</mask>
<g mask="url(#mask52_1_320)">
<path d="M44.9624 43.6641H44.3281V54.7442H44.9624V43.6641Z" fill="#683E3A"/>
</g>
<mask id="mask53_1_320" style="mask-type:luminance" maskUnits="userSpaceOnUse" x="37" y="43" width="9" height="12">
<path d="M37.35 54.7441C37.35 54.7441 37.1914 54.7441 37.35 54.7441C37.1914 54.7441 37.1914 54.5858 37.1914 54.5858C37.1914 54.4275 37.6671 52.3698 39.0943 49.8372C40.9972 46.6714 44.1686 44.6137 45.4372 43.8223C45.5958 43.8223 45.5958 43.8223 45.7544 43.8223C45.7544 43.9806 45.7544 43.9805 45.7544 44.1388C44.4858 44.9303 41.3143 46.988 39.57 49.9955C38.1428 52.5281 37.6671 54.7441 37.6671 54.7441C37.5086 54.7441 37.35 54.7441 37.35 54.7441Z" fill="white"/>
</mask>
<g mask="url(#mask53_1_320)">
<path d="M45.5952 43.6641H44.9609V54.7442H45.5952V43.6641Z" fill="#693F39"/>
</g>
<mask id="mask54_1_320" style="mask-type:luminance" maskUnits="userSpaceOnUse" x="34" y="38" width="13" height="14">
<path d="M34.3344 51.8889C34.1758 51.8889 34.1758 51.7306 34.1758 51.7306C35.1272 48.4066 36.713 45.7157 38.6158 43.658C40.9944 41.1254 44.3245 39.0676 46.2273 38.5928C46.3859 38.5928 46.3859 38.5928 46.3859 38.7511C46.3859 38.9094 46.3859 38.9093 46.2273 38.9093C44.483 39.3842 40.9944 41.6002 38.7744 43.9745C36.8715 46.0323 35.4444 48.7232 34.3344 51.8889C34.3344 51.8889 34.4929 51.8889 34.3344 51.8889Z" fill="white"/>
</mask>
<g mask="url(#mask54_1_320)">
<path d="M35.1272 38.5928H34.1758V52.0472H35.1272V38.5928Z" fill="#5C3543"/>
</g>
<mask id="mask55_1_320" style="mask-type:luminance" maskUnits="userSpaceOnUse" x="34" y="38" width="13" height="14">
<path d="M34.3344 51.8889C34.1758 51.8889 34.1758 51.7306 34.1758 51.7306C35.1272 48.4066 36.713 45.7157 38.6158 43.658C40.9944 41.1254 44.3245 39.0676 46.2273 38.5928C46.3859 38.5928 46.3859 38.5928 46.3859 38.7511C46.3859 38.9094 46.3859 38.9093 46.2273 38.9093C44.483 39.3842 40.9944 41.6002 38.7744 43.9745C36.8715 46.0323 35.4444 48.7232 34.3344 51.8889C34.3344 51.8889 34.4929 51.8889 34.3344 51.8889Z" fill="white"/>
</mask>
<g mask="url(#mask55_1_320)">
<path d="M36.0784 38.5928H35.127V52.0472H36.0784V38.5928Z" fill="#5D3642"/>
</g>
<mask id="mask56_1_320" style="mask-type:luminance" maskUnits="userSpaceOnUse" x="34" y="38" width="13" height="14">
<path d="M34.3344 51.8889C34.1758 51.8889 34.1758 51.7306 34.1758 51.7306C35.1272 48.4066 36.713 45.7157 38.6158 43.658C40.9944 41.1254 44.3245 39.0676 46.2273 38.5928C46.3859 38.5928 46.3859 38.5928 46.3859 38.7511C46.3859 38.9094 46.3859 38.9093 46.2273 38.9093C44.483 39.3842 40.9944 41.6002 38.7744 43.9745C36.8715 46.0323 35.4444 48.7232 34.3344 51.8889C34.3344 51.8889 34.4929 51.8889 34.3344 51.8889Z" fill="white"/>
</mask>
<g mask="url(#mask56_1_320)">
<path d="M37.0296 38.5928H36.0781V52.0472H37.0296V38.5928Z" fill="#5E3741"/>
</g>
<mask id="mask57_1_320" style="mask-type:luminance" maskUnits="userSpaceOnUse" x="34" y="38" width="13" height="14">
<path d="M34.3344 51.8889C34.1758 51.8889 34.1758 51.7306 34.1758 51.7306C35.1272 48.4066 36.713 45.7157 38.6158 43.658C40.9944 41.1254 44.3245 39.0676 46.2273 38.5928C46.3859 38.5928 46.3859 38.5928 46.3859 38.7511C46.3859 38.9094 46.3859 38.9093 46.2273 38.9093C44.483 39.3842 40.9944 41.6002 38.7744 43.9745C36.8715 46.0323 35.4444 48.7232 34.3344 51.8889C34.3344 51.8889 34.4929 51.8889 34.3344 51.8889Z" fill="white"/>
</mask>
<g mask="url(#mask57_1_320)">
<path d="M37.8225 38.5928H36.8711V52.0472H37.8225V38.5928Z" fill="#5F3841"/>
</g>
<mask id="mask58_1_320" style="mask-type:luminance" maskUnits="userSpaceOnUse" x="34" y="38" width="13" height="14">
<path d="M34.3344 51.8889C34.1758 51.8889 34.1758 51.7306 34.1758 51.7306C35.1272 48.4066 36.713 45.7157 38.6158 43.658C40.9944 41.1254 44.3245 39.0676 46.2273 38.5928C46.3859 38.5928 46.3859 38.5928 46.3859 38.7511C46.3859 38.9094 46.3859 38.9093 46.2273 38.9093C44.483 39.3842 40.9944 41.6002 38.7744 43.9745C36.8715 46.0323 35.4444 48.7232 34.3344 51.8889C34.3344 51.8889 34.4929 51.8889 34.3344 51.8889Z" fill="white"/>
</mask>
<g mask="url(#mask58_1_320)">
<path d="M38.7757 38.5928H37.8242V52.0472H38.7757V38.5928Z" fill="#603840"/>
</g>
<mask id="mask59_1_320" style="mask-type:luminance" maskUnits="userSpaceOnUse" x="34" y="38" width="13" height="14">
<path d="M34.3344 51.8889C34.1758 51.8889 34.1758 51.7306 34.1758 51.7306C35.1272 48.4066 36.713 45.7157 38.6158 43.658C40.9944 41.1254 44.3245 39.0676 46.2273 38.5928C46.3859 38.5928 46.3859 38.5928 46.3859 38.7511C46.3859 38.9094 46.3859 38.9093 46.2273 38.9093C44.483 39.3842 40.9944 41.6002 38.7744 43.9745C36.8715 46.0323 35.4444 48.7232 34.3344 51.8889C34.3344 51.8889 34.4929 51.8889 34.3344 51.8889Z" fill="white"/>
</mask>
<g mask="url(#mask59_1_320)">
<path d="M39.7249 38.5928H38.7734V52.0472H39.7249V38.5928Z" fill="#61393F"/>
</g>
<mask id="mask60_1_320" style="mask-type:luminance" maskUnits="userSpaceOnUse" x="34" y="38" width="13" height="14">
<path d="M34.3344 51.8889C34.1758 51.8889 34.1758 51.7306 34.1758 51.7306C35.1272 48.4066 36.713 45.7157 38.6158 43.658C40.9944 41.1254 44.3245 39.0676 46.2273 38.5928C46.3859 38.5928 46.3859 38.5928 46.3859 38.7511C46.3859 38.9094 46.3859 38.9093 46.2273 38.9093C44.483 39.3842 40.9944 41.6002 38.7744 43.9745C36.8715 46.0323 35.4444 48.7232 34.3344 51.8889C34.3344 51.8889 34.4929 51.8889 34.3344 51.8889Z" fill="white"/>
</mask>
<g mask="url(#mask60_1_320)">
<path d="M40.678 38.5928H39.7266V52.0472H40.678V38.5928Z" fill="#633A3E"/>
</g>
<mask id="mask61_1_320" style="mask-type:luminance" maskUnits="userSpaceOnUse" x="34" y="38" width="13" height="14">
<path d="M34.3344 51.8889C34.1758 51.8889 34.1758 51.7306 34.1758 51.7306C35.1272 48.4066 36.713 45.7157 38.6158 43.658C40.9944 41.1254 44.3245 39.0676 46.2273 38.5928C46.3859 38.5928 46.3859 38.5928 46.3859 38.7511C46.3859 38.9094 46.3859 38.9093 46.2273 38.9093C44.483 39.3842 40.9944 41.6002 38.7744 43.9745C36.8715 46.0323 35.4444 48.7232 34.3344 51.8889C34.3344 51.8889 34.4929 51.8889 34.3344 51.8889Z" fill="white"/>
</mask>
<g mask="url(#mask61_1_320)">
<path d="M41.6292 38.5928H40.6777V52.0472H41.6292V38.5928Z" fill="#643B3D"/>
</g>
<mask id="mask62_1_320" style="mask-type:luminance" maskUnits="userSpaceOnUse" x="34" y="38" width="13" height="14">
<path d="M34.3344 51.8889C34.1758 51.8889 34.1758 51.7306 34.1758 51.7306C35.1272 48.4066 36.713 45.7157 38.6158 43.658C40.9944 41.1254 44.3245 39.0676 46.2273 38.5928C46.3859 38.5928 46.3859 38.5928 46.3859 38.7511C46.3859 38.9094 46.3859 38.9093 46.2273 38.9093C44.483 39.3842 40.9944 41.6002 38.7744 43.9745C36.8715 46.0323 35.4444 48.7232 34.3344 51.8889C34.3344 51.8889 34.4929 51.8889 34.3344 51.8889Z" fill="white"/>
</mask>
<g mask="url(#mask62_1_320)">
<path d="M42.5803 38.5928H41.6289V52.0472H42.5803V38.5928Z" fill="#653C3C"/>
</g>
<mask id="mask63_1_320" style="mask-type:luminance" maskUnits="userSpaceOnUse" x="34" y="38" width="13" height="14">
<path d="M34.3344 51.8889C34.1758 51.8889 34.1758 51.7306 34.1758 51.7306C35.1272 48.4066 36.713 45.7157 38.6158 43.658C40.9944 41.1254 44.3245 39.0676 46.2273 38.5928C46.3859 38.5928 46.3859 38.5928 46.3859 38.7511C46.3859 38.9094 46.3859 38.9093 46.2273 38.9093C44.483 39.3842 40.9944 41.6002 38.7744 43.9745C36.8715 46.0323 35.4444 48.7232 34.3344 51.8889C34.3344 51.8889 34.4929 51.8889 34.3344 51.8889Z" fill="white"/>
</mask>
<g mask="url(#mask63_1_320)">
<path d="M43.5315 38.5928H42.5801V52.0472H43.5315V38.5928Z" fill="#663D3C"/>
</g>
<mask id="mask64_1_320" style="mask-type:luminance" maskUnits="userSpaceOnUse" x="34" y="38" width="13" height="14">
<path d="M34.3344 51.8889C34.1758 51.8889 34.1758 51.7306 34.1758 51.7306C35.1272 48.4066 36.713 45.7157 38.6158 43.658C40.9944 41.1254 44.3245 39.0676 46.2273 38.5928C46.3859 38.5928 46.3859 38.5928 46.3859 38.7511C46.3859 38.9094 46.3859 38.9093 46.2273 38.9093C44.483 39.3842 40.9944 41.6002 38.7744 43.9745C36.8715 46.0323 35.4444 48.7232 34.3344 51.8889C34.3344 51.8889 34.4929 51.8889 34.3344 51.8889Z" fill="white"/>
</mask>
<g mask="url(#mask64_1_320)">
<path d="M44.4827 38.5928H43.5312V52.0472H44.4827V38.5928Z" fill="#673D3B"/>
</g>
<mask id="mask65_1_320" style="mask-type:luminance" maskUnits="userSpaceOnUse" x="34" y="38" width="13" height="14">
<path d="M34.3344 51.8889C34.1758 51.8889 34.1758 51.7306 34.1758 51.7306C35.1272 48.4066 36.713 45.7157 38.6158 43.658C40.9944 41.1254 44.3245 39.0676 46.2273 38.5928C46.3859 38.5928 46.3859 38.5928 46.3859 38.7511C46.3859 38.9094 46.3859 38.9093 46.2273 38.9093C44.483 39.3842 40.9944 41.6002 38.7744 43.9745C36.8715 46.0323 35.4444 48.7232 34.3344 51.8889C34.3344 51.8889 34.4929 51.8889 34.3344 51.8889Z" fill="white"/>
</mask>
<g mask="url(#mask65_1_320)">
<path d="M45.4358 38.5928H44.4844V52.0472H45.4358V38.5928Z" fill="#683E3A"/>
</g>
<mask id="mask66_1_320" style="mask-type:luminance" maskUnits="userSpaceOnUse" x="34" y="38" width="13" height="14">
<path d="M34.3344 51.8889C34.1758 51.8889 34.1758 51.7306 34.1758 51.7306C35.1272 48.4066 36.713 45.7157 38.6158 43.658C40.9944 41.1254 44.3245 39.0676 46.2273 38.5928C46.3859 38.5928 46.3859 38.5928 46.3859 38.7511C46.3859 38.9094 46.3859 38.9093 46.2273 38.9093C44.483 39.3842 40.9944 41.6002 38.7744 43.9745C36.8715 46.0323 35.4444 48.7232 34.3344 51.8889C34.3344 51.8889 34.4929 51.8889 34.3344 51.8889Z" fill="white"/>
</mask>
<g mask="url(#mask66_1_320)">
<path d="M46.385 38.5928H45.4336V52.0472H46.385V38.5928Z" fill="#693F39"/>
</g>
<mask id="mask67_1_320" style="mask-type:luminance" maskUnits="userSpaceOnUse" x="34" y="44" width="4" height="6">
<path d="M34.9711 49.836C34.8125 49.836 34.8125 49.6778 34.8125 49.6778C34.9711 48.4115 35.9225 45.8789 36.7154 44.296C36.7154 44.1377 36.874 44.1377 37.0325 44.1377C37.1911 44.1377 37.1911 44.296 37.1911 44.4543C36.5568 46.0371 35.6054 48.4115 35.4468 49.6778C35.1296 49.836 35.1296 49.836 34.9711 49.836Z" fill="white"/>
</mask>
<g mask="url(#mask67_1_320)">
<path d="M34.9711 44.1377H34.8125V49.836H34.9711V44.1377Z" fill="#5C3543"/>
</g>
<mask id="mask68_1_320" style="mask-type:luminance" maskUnits="userSpaceOnUse" x="34" y="44" width="4" height="6">
<path d="M34.9711 49.836C34.8125 49.836 34.8125 49.6778 34.8125 49.6778C34.9711 48.4115 35.9225 45.8789 36.7154 44.296C36.7154 44.1377 36.874 44.1377 37.0325 44.1377C37.1911 44.1377 37.1911 44.296 37.1911 44.4543C36.5568 46.0371 35.6054 48.4115 35.4468 49.6778C35.1296 49.836 35.1296 49.836 34.9711 49.836Z" fill="white"/>
</mask>
<g mask="url(#mask68_1_320)">
<path d="M35.1312 44.1377H34.9727V49.836H35.1312V44.1377Z" fill="#5D3642"/>
</g>
<mask id="mask69_1_320" style="mask-type:luminance" maskUnits="userSpaceOnUse" x="34" y="44" width="4" height="6">
<path d="M34.9711 49.836C34.8125 49.836 34.8125 49.6778 34.8125 49.6778C34.9711 48.4115 35.9225 45.8789 36.7154 44.296C36.7154 44.1377 36.874 44.1377 37.0325 44.1377C37.1911 44.1377 37.1911 44.296 37.1911 44.4543C36.5568 46.0371 35.6054 48.4115 35.4468 49.6778C35.1296 49.836 35.1296 49.836 34.9711 49.836Z" fill="white"/>
</mask>
<g mask="url(#mask69_1_320)">
<path d="M35.2875 44.1377H35.1289V49.836H35.2875V44.1377Z" fill="#5E3741"/>
</g>
<mask id="mask70_1_320" style="mask-type:luminance" maskUnits="userSpaceOnUse" x="34" y="44" width="4" height="6">
<path d="M34.9711 49.836C34.8125 49.836 34.8125 49.6778 34.8125 49.6778C34.9711 48.4115 35.9225 45.8789 36.7154 44.296C36.7154 44.1377 36.874 44.1377 37.0325 44.1377C37.1911 44.1377 37.1911 44.296 37.1911 44.4543C36.5568 46.0371 35.6054 48.4115 35.4468 49.6778C35.1296 49.836 35.1296 49.836 34.9711 49.836Z" fill="white"/>
</mask>
<g mask="url(#mask70_1_320)">
<path d="M35.4476 44.1377H35.2891V49.836H35.4476V44.1377Z" fill="#5F3841"/>
</g>
<mask id="mask71_1_320" style="mask-type:luminance" maskUnits="userSpaceOnUse" x="34" y="44" width="4" height="6">
<path d="M34.9711 49.836C34.8125 49.836 34.8125 49.6778 34.8125 49.6778C34.9711 48.4115 35.9225 45.8789 36.7154 44.296C36.7154 44.1377 36.874 44.1377 37.0325 44.1377C37.1911 44.1377 37.1911 44.296 37.1911 44.4543C36.5568 46.0371 35.6054 48.4115 35.4468 49.6778C35.1296 49.836 35.1296 49.836 34.9711 49.836Z" fill="white"/>
</mask>
<g mask="url(#mask71_1_320)">
<path d="M35.6039 44.1377H35.4453V49.836H35.6039V44.1377Z" fill="#603840"/>
</g>
<mask id="mask72_1_320" style="mask-type:luminance" maskUnits="userSpaceOnUse" x="34" y="44" width="4" height="6">
<path d="M34.9711 49.836C34.8125 49.836 34.8125 49.6778 34.8125 49.6778C34.9711 48.4115 35.9225 45.8789 36.7154 44.296C36.7154 44.1377 36.874 44.1377 37.0325 44.1377C37.1911 44.1377 37.1911 44.296 37.1911 44.4543C36.5568 46.0371 35.6054 48.4115 35.4468 49.6778C35.1296 49.836 35.1296 49.836 34.9711 49.836Z" fill="white"/>
</mask>
<g mask="url(#mask72_1_320)">
<path d="M35.764 44.1377H35.6055V49.836H35.764V44.1377Z" fill="#61393F"/>
</g>
<mask id="mask73_1_320" style="mask-type:luminance" maskUnits="userSpaceOnUse" x="34" y="44" width="4" height="6">
<path d="M34.9711 49.836C34.8125 49.836 34.8125 49.6778 34.8125 49.6778C34.9711 48.4115 35.9225 45.8789 36.7154 44.296C36.7154 44.1377 36.874 44.1377 37.0325 44.1377C37.1911 44.1377 37.1911 44.296 37.1911 44.4543C36.5568 46.0371 35.6054 48.4115 35.4468 49.6778C35.1296 49.836 35.1296 49.836 34.9711 49.836Z" fill="white"/>
</mask>
<g mask="url(#mask73_1_320)">
<path d="M36.0804 44.1377H35.9219V49.836H36.0804V44.1377Z" fill="#633A3E"/>
</g>
<mask id="mask74_1_320" style="mask-type:luminance" maskUnits="userSpaceOnUse" x="34" y="44" width="4" height="6">
<path d="M34.9711 49.836C34.8125 49.836 34.8125 49.6778 34.8125 49.6778C34.9711 48.4115 35.9225 45.8789 36.7154 44.296C36.7154 44.1377 36.874 44.1377 37.0325 44.1377C37.1911 44.1377 37.1911 44.296 37.1911 44.4543C36.5568 46.0371 35.6054 48.4115 35.4468 49.6778C35.1296 49.836 35.1296 49.836 34.9711 49.836Z" fill="white"/>
</mask>
<g mask="url(#mask74_1_320)">
<path d="M36.2406 44.1377H36.082V49.836H36.2406V44.1377Z" fill="#643B3D"/>
</g>
<mask id="mask75_1_320" style="mask-type:luminance" maskUnits="userSpaceOnUse" x="34" y="44" width="4" height="6">
<path d="M34.9711 49.836C34.8125 49.836 34.8125 49.6778 34.8125 49.6778C34.9711 48.4115 35.9225 45.8789 36.7154 44.296C36.7154 44.1377 36.874 44.1377 37.0325 44.1377C37.1911 44.1377 37.1911 44.296 37.1911 44.4543C36.5568 46.0371 35.6054 48.4115 35.4468 49.6778C35.1296 49.836 35.1296 49.836 34.9711 49.836Z" fill="white"/>
</mask>
<g mask="url(#mask75_1_320)">
<path d="M36.3969 44.1377H36.2383V49.836H36.3969V44.1377Z" fill="#653C3C"/>
</g>
<mask id="mask76_1_320" style="mask-type:luminance" maskUnits="userSpaceOnUse" x="34" y="44" width="4" height="6">
<path d="M34.9711 49.836C34.8125 49.836 34.8125 49.6778 34.8125 49.6778C34.9711 48.4115 35.9225 45.8789 36.7154 44.296C36.7154 44.1377 36.874 44.1377 37.0325 44.1377C37.1911 44.1377 37.1911 44.296 37.1911 44.4543C36.5568 46.0371 35.6054 48.4115 35.4468 49.6778C35.1296 49.836 35.1296 49.836 34.9711 49.836Z" fill="white"/>
</mask>
<g mask="url(#mask76_1_320)">
<path d="M36.557 44.1377H36.3984V49.836H36.557V44.1377Z" fill="#663D3C"/>
</g>
<mask id="mask77_1_320" style="mask-type:luminance" maskUnits="userSpaceOnUse" x="34" y="44" width="4" height="6">
<path d="M34.9711 49.836C34.8125 49.836 34.8125 49.6778 34.8125 49.6778C34.9711 48.4115 35.9225 45.8789 36.7154 44.296C36.7154 44.1377 36.874 44.1377 37.0325 44.1377C37.1911 44.1377 37.1911 44.296 37.1911 44.4543C36.5568 46.0371 35.6054 48.4115 35.4468 49.6778C35.1296 49.836 35.1296 49.836 34.9711 49.836Z" fill="white"/>
</mask>
<g mask="url(#mask77_1_320)">
<path d="M36.7172 44.1377H36.5586V49.836H36.7172V44.1377Z" fill="#673D3B"/>
</g>
<mask id="mask78_1_320" style="mask-type:luminance" maskUnits="userSpaceOnUse" x="34" y="44" width="4" height="6">
<path d="M34.9711 49.836C34.8125 49.836 34.8125 49.6778 34.8125 49.6778C34.9711 48.4115 35.9225 45.8789 36.7154 44.296C36.7154 44.1377 36.874 44.1377 37.0325 44.1377C37.1911 44.1377 37.1911 44.296 37.1911 44.4543C36.5568 46.0371 35.6054 48.4115 35.4468 49.6778C35.1296 49.836 35.1296 49.836 34.9711 49.836Z" fill="white"/>
</mask>
<g mask="url(#mask78_1_320)">
<path d="M36.8734 44.1377H36.7148V49.836H36.8734V44.1377Z" fill="#683E3A"/>
</g>
<mask id="mask79_1_320" style="mask-type:luminance" maskUnits="userSpaceOnUse" x="34" y="44" width="4" height="6">
<path d="M34.9711 49.836C34.8125 49.836 34.8125 49.6778 34.8125 49.6778C34.9711 48.4115 35.9225 45.8789 36.7154 44.296C36.7154 44.1377 36.874 44.1377 37.0325 44.1377C37.1911 44.1377 37.1911 44.296 37.1911 44.4543C36.5568 46.0371 35.6054 48.4115 35.4468 49.6778C35.1296 49.836 35.1296 49.836 34.9711 49.836Z" fill="white"/>
</mask>
<g mask="url(#mask79_1_320)">
<path d="M37.0336 44.1377H36.875V49.836H37.0336V44.1377Z" fill="#693F39"/>
</g>
<mask id="mask80_1_320" style="mask-type:luminance" maskUnits="userSpaceOnUse" x="1" y="130" width="4" height="13">
<path d="M2.14689 142.115C1.98832 142.115 1.98832 142.115 1.98832 141.956C1.98832 141.956 1.67117 136.258 3.8912 130.718C3.8912 130.56 4.04977 130.56 4.04977 130.56C4.20834 130.56 4.20835 130.718 4.20835 130.718C1.98832 136.1 2.30547 141.64 2.30547 141.798C2.30547 142.115 2.30547 142.115 2.14689 142.115Z" fill="white"/>
</mask>
<g mask="url(#mask80_1_320)">
<path d="M1.98902 130.56H1.67188V142.115H1.98902V130.56Z" fill="#5C3543"/>
</g>
<mask id="mask81_1_320" style="mask-type:luminance" maskUnits="userSpaceOnUse" x="1" y="130" width="4" height="13">
<path d="M2.14689 142.115C1.98832 142.115 1.98832 142.115 1.98832 141.956C1.98832 141.956 1.67117 136.258 3.8912 130.718C3.8912 130.56 4.04977 130.56 4.04977 130.56C4.20834 130.56 4.20835 130.718 4.20835 130.718C1.98832 136.1 2.30547 141.64 2.30547 141.798C2.30547 142.115 2.30547 142.115 2.14689 142.115Z" fill="white"/>
</mask>
<g mask="url(#mask81_1_320)">
<path d="M2.14686 130.56H1.98828V142.115H2.14686V130.56Z" fill="#5C3543"/>
</g>
<mask id="mask82_1_320" style="mask-type:luminance" maskUnits="userSpaceOnUse" x="1" y="130" width="4" height="13">
<path d="M2.14689 142.115C1.98832 142.115 1.98832 142.115 1.98832 141.956C1.98832 141.956 1.67117 136.258 3.8912 130.718C3.8912 130.56 4.04977 130.56 4.04977 130.56C4.20834 130.56 4.20835 130.718 4.20835 130.718C1.98832 136.1 2.30547 141.64 2.30547 141.798C2.30547 142.115 2.30547 142.115 2.14689 142.115Z" fill="white"/>
</mask>
<g mask="url(#mask82_1_320)">
<path d="M2.30506 130.56H2.14648V142.115H2.30506V130.56Z" fill="#5D3642"/>
</g>
<mask id="mask83_1_320" style="mask-type:luminance" maskUnits="userSpaceOnUse" x="1" y="130" width="4" height="13">
<path d="M2.14689 142.115C1.98832 142.115 1.98832 142.115 1.98832 141.956C1.98832 141.956 1.67117 136.258 3.8912 130.718C3.8912 130.56 4.04977 130.56 4.04977 130.56C4.20834 130.56 4.20835 130.718 4.20835 130.718C1.98832 136.1 2.30547 141.64 2.30547 141.798C2.30547 142.115 2.30547 142.115 2.14689 142.115Z" fill="white"/>
</mask>
<g mask="url(#mask83_1_320)">
<path d="M2.46326 130.56H2.30469V142.115H2.46326V130.56Z" fill="#5E3741"/>
</g>
<mask id="mask84_1_320" style="mask-type:luminance" maskUnits="userSpaceOnUse" x="1" y="130" width="4" height="13">
<path d="M2.14689 142.115C1.98832 142.115 1.98832 142.115 1.98832 141.956C1.98832 141.956 1.67117 136.258 3.8912 130.718C3.8912 130.56 4.04977 130.56 4.04977 130.56C4.20834 130.56 4.20835 130.718 4.20835 130.718C1.98832 136.1 2.30547 141.64 2.30547 141.798C2.30547 142.115 2.30547 142.115 2.14689 142.115Z" fill="white"/>
</mask>
<g mask="url(#mask84_1_320)">
<path d="M2.62342 130.56H2.46484V142.115H2.62342V130.56Z" fill="#5F3841"/>
</g>
<mask id="mask85_1_320" style="mask-type:luminance" maskUnits="userSpaceOnUse" x="1" y="130" width="4" height="13">
<path d="M2.14689 142.115C1.98832 142.115 1.98832 142.115 1.98832 141.956C1.98832 141.956 1.67117 136.258 3.8912 130.718C3.8912 130.56 4.04977 130.56 4.04977 130.56C4.20834 130.56 4.20835 130.718 4.20835 130.718C1.98832 136.1 2.30547 141.64 2.30547 141.798C2.30547 142.115 2.30547 142.115 2.14689 142.115Z" fill="white"/>
</mask>
<g mask="url(#mask85_1_320)">
<path d="M2.77966 130.56H2.62109V142.115H2.77966V130.56Z" fill="#603840"/>
</g>
<mask id="mask86_1_320" style="mask-type:luminance" maskUnits="userSpaceOnUse" x="1" y="130" width="4" height="13">
<path d="M2.14689 142.115C1.98832 142.115 1.98832 142.115 1.98832 141.956C1.98832 141.956 1.67117 136.258 3.8912 130.718C3.8912 130.56 4.04977 130.56 4.04977 130.56C4.20834 130.56 4.20835 130.718 4.20835 130.718C1.98832 136.1 2.30547 141.64 2.30547 141.798C2.30547 142.115 2.30547 142.115 2.14689 142.115Z" fill="white"/>
</mask>
<g mask="url(#mask86_1_320)">
<path d="M2.93983 130.56H2.78125V142.115H2.93983V130.56Z" fill="#61393F"/>
</g>
<mask id="mask87_1_320" style="mask-type:luminance" maskUnits="userSpaceOnUse" x="1" y="130" width="4" height="13">
<path d="M2.14689 142.115C1.98832 142.115 1.98832 142.115 1.98832 141.956C1.98832 141.956 1.67117 136.258 3.8912 130.718C3.8912 130.56 4.04977 130.56 4.04977 130.56C4.20834 130.56 4.20835 130.718 4.20835 130.718C1.98832 136.1 2.30547 141.64 2.30547 141.798C2.30547 142.115 2.30547 142.115 2.14689 142.115Z" fill="white"/>
</mask>
<g mask="url(#mask87_1_320)">
<path d="M3.09802 130.56H2.93945V142.115H3.09802V130.56Z" fill="#633A3E"/>
</g>
<mask id="mask88_1_320" style="mask-type:luminance" maskUnits="userSpaceOnUse" x="1" y="130" width="4" height="13">
<path d="M2.14689 142.115C1.98832 142.115 1.98832 142.115 1.98832 141.956C1.98832 141.956 1.67117 136.258 3.8912 130.718C3.8912 130.56 4.04977 130.56 4.04977 130.56C4.20834 130.56 4.20835 130.718 4.20835 130.718C1.98832 136.1 2.30547 141.64 2.30547 141.798C2.30547 142.115 2.30547 142.115 2.14689 142.115Z" fill="white"/>
</mask>
<g mask="url(#mask88_1_320)">
<path d="M3.25623 130.56H3.09766V142.115H3.25623V130.56Z" fill="#643B3D"/>
</g>
<mask id="mask89_1_320" style="mask-type:luminance" maskUnits="userSpaceOnUse" x="1" y="130" width="4" height="13">
<path d="M2.14689 142.115C1.98832 142.115 1.98832 142.115 1.98832 141.956C1.98832 141.956 1.67117 136.258 3.8912 130.718C3.8912 130.56 4.04977 130.56 4.04977 130.56C4.20834 130.56 4.20835 130.718 4.20835 130.718C1.98832 136.1 2.30547 141.64 2.30547 141.798C2.30547 142.115 2.30547 142.115 2.14689 142.115Z" fill="white"/>
</mask>
<g mask="url(#mask89_1_320)">
<path d="M3.41639 130.56H3.25781V142.115H3.41639V130.56Z" fill="#653C3C"/>
</g>
<mask id="mask90_1_320" style="mask-type:luminance" maskUnits="userSpaceOnUse" x="1" y="130" width="4" height="13">
<path d="M2.14689 142.115C1.98832 142.115 1.98832 142.115 1.98832 141.956C1.98832 141.956 1.67117 136.258 3.8912 130.718C3.8912 130.56 4.04977 130.56 4.04977 130.56C4.20834 130.56 4.20835 130.718 4.20835 130.718C1.98832 136.1 2.30547 141.64 2.30547 141.798C2.30547 142.115 2.30547 142.115 2.14689 142.115Z" fill="white"/>
</mask>
<g mask="url(#mask90_1_320)">
<path d="M3.7328 130.56H3.57422V142.115H3.7328V130.56Z" fill="#663D3C"/>
</g>
<mask id="mask91_1_320" style="mask-type:luminance" maskUnits="userSpaceOnUse" x="1" y="130" width="4" height="13">
<path d="M2.14689 142.115C1.98832 142.115 1.98832 142.115 1.98832 141.956C1.98832 141.956 1.67117 136.258 3.8912 130.718C3.8912 130.56 4.04977 130.56 4.04977 130.56C4.20834 130.56 4.20835 130.718 4.20835 130.718C1.98832 136.1 2.30547 141.64 2.30547 141.798C2.30547 142.115 2.30547 142.115 2.14689 142.115Z" fill="white"/>
</mask>
<g mask="url(#mask91_1_320)">
<path d="M3.89099 130.56H3.73242V142.115H3.89099V130.56Z" fill="#673D3B"/>
</g>
<mask id="mask92_1_320" style="mask-type:luminance" maskUnits="userSpaceOnUse" x="1" y="130" width="4" height="13">
<path d="M2.14689 142.115C1.98832 142.115 1.98832 142.115 1.98832 141.956C1.98832 141.956 1.67117 136.258 3.8912 130.718C3.8912 130.56 4.04977 130.56 4.04977 130.56C4.20834 130.56 4.20835 130.718 4.20835 130.718C1.98832 136.1 2.30547 141.64 2.30547 141.798C2.30547 142.115 2.30547 142.115 2.14689 142.115Z" fill="white"/>
</mask>
<g mask="url(#mask92_1_320)">
<path d="M4.0492 130.56H3.89062V142.115H4.0492V130.56Z" fill="#683E3A"/>
</g>
<mask id="mask93_1_320" style="mask-type:luminance" maskUnits="userSpaceOnUse" x="1" y="130" width="4" height="13">
<path d="M2.14689 142.115C1.98832 142.115 1.98832 142.115 1.98832 141.956C1.98832 141.956 1.67117 136.258 3.8912 130.718C3.8912 130.56 4.04977 130.56 4.04977 130.56C4.20834 130.56 4.20835 130.718 4.20835 130.718C1.98832 136.1 2.30547 141.64 2.30547 141.798C2.30547 142.115 2.30547 142.115 2.14689 142.115Z" fill="white"/>
</mask>
<g mask="url(#mask93_1_320)">
<path d="M4.20936 130.56H4.05078V142.115H4.20936V130.56Z" fill="#693F39"/>
</g>
</svg>
