<svg width="23" height="32" viewBox="0 0 23 32" fill="none" xmlns="http://www.w3.org/2000/svg">
<path d="M22.6264 8.76759H0.169681C0.0770905 8.76759 0.00585938 8.69636 0.00585938 8.60377V8.28327C0.00585938 3.71073 3.71659 0 8.28913 0H14.5212C19.0937 0 22.8044 3.71073 22.8044 8.28327V8.60377C22.7902 8.69636 22.719 8.76759 22.6264 8.76759Z" fill="#0C87C9"/>
<path d="M14.0239 23.2324H0C0 28.0756 3.9244 32 8.76758 32H22.7914C22.7914 27.1568 18.867 23.2324 14.0239 23.2324Z" fill="#0C87C9"/>
<path d="M10.0781 23.2337H0V8.24122C0 3.69718 3.68936 0.0078125 8.23341 0.0078125H10.0781V23.2337Z" fill="url(#paint0_linear_1_26)"/>
<defs>
<linearGradient id="paint0_linear_1_26" x1="4.9988" y1="0.176968" x2="5.13049" y2="36.3897" gradientUnits="userSpaceOnUse">
<stop offset="0.00457872" stop-color="#0C87C9"/>
<stop offset="1" stop-color="#36499D"/>
</linearGradient>
</defs>
</svg>
