<svg width="18" height="18" viewBox="0 0 18 18" fill="none" xmlns="http://www.w3.org/2000/svg">
<mask id="mask0_1_21" style="mask-type:alpha" maskUnits="userSpaceOnUse" x="0" y="0" width="18" height="18">
<rect width="18" height="18" fill="#D9D9D9"/>
</mask>
<g mask="url(#mask0_1_21)">
<path d="M9 17.25V15.75H14.25V15H11.25V9H14.25V8.25C14.25 6.8 13.7375 5.5625 12.7125 4.5375C11.6875 3.5125 10.45 3 9 3C7.55 3 6.3125 3.5125 5.2875 4.5375C4.2625 5.5625 3.75 6.8 3.75 8.25V9H6.75V15H3.75C3.3375 15 2.98425 14.8533 2.69025 14.5598C2.39675 14.2658 2.25 13.9125 2.25 13.5V8.25C2.25 7.325 2.428 6.453 2.784 5.634C3.1405 4.8155 3.625 4.1 4.2375 3.4875C4.85 2.875 5.5655 2.3905 6.384 2.034C7.203 1.678 8.075 1.5 9 1.5C9.925 1.5 10.797 1.678 11.616 2.034C12.4345 2.3905 13.15 2.875 13.7625 3.4875C14.375 4.1 14.8595 4.8155 15.216 5.634C15.572 6.453 15.75 7.325 15.75 8.25V15.75C15.75 16.1625 15.6033 16.5158 15.3098 16.8098C15.0158 17.1033 14.6625 17.25 14.25 17.25H9ZM3.75 13.5H5.25V10.5H3.75V13.5ZM12.75 13.5H14.25V10.5H12.75V13.5Z" fill="white"/>
</g>
</svg>
