<svg width="281" height="229" viewBox="0 0 281 229" fill="none" xmlns="http://www.w3.org/2000/svg">
<mask id="mask0_1_124" style="mask-type:luminance" maskUnits="userSpaceOnUse" x="60" y="24" width="160" height="199">
<path d="M220 24.7734H60V222.26H220V24.7734Z" fill="white"/>
</mask>
<g mask="url(#mask0_1_124)">
<path d="M230.935 244.099H173.197L168.406 231.322C166.71 226.795 163.239 223.157 158.797 221.167C154.615 219.291 148.989 215.887 143.532 209.819C132.916 198.011 127.281 185.342 127.281 185.342L163.062 185.169C163.062 185.169 159.841 165.337 177.624 138.992C179.529 136.171 180.392 132.79 180.097 129.409L178.412 110.198C178.412 110.198 166.328 96.8149 173.743 80.21C173.743 80.21 180.834 70.4817 183.647 74.0441C183.647 74.0441 205.065 124.581 207.014 132.096C208.963 139.611 211.565 144.333 208.963 167.951C208.274 174.203 208.027 179.416 208.035 183.706C208.052 191.937 209.906 200.06 213.458 207.5L230.935 244.099Z" fill="#F8A796"/>
</g>
<mask id="mask1_1_124" style="mask-type:luminance" maskUnits="userSpaceOnUse" x="60" y="24" width="160" height="199">
<path d="M220 24.7734H60V222.26H220V24.7734Z" fill="white"/>
</mask>
<g mask="url(#mask1_1_124)">
<path d="M95.007 40.3497C95.007 40.3497 82.7763 32.2381 79.9859 37.5817C77.1926 42.9253 95.8733 61.8355 95.8733 61.8355L95.007 40.3497Z" fill="#F8A796"/>
<path d="M95.007 75.6885C95.007 75.6885 82.7763 67.577 79.9859 72.9206C77.1926 78.2642 95.8733 97.1744 95.8733 97.1744L95.007 75.6885Z" fill="#F8A796"/>
<path d="M95.007 99.7676C95.007 99.7676 82.7763 91.6561 79.9859 96.9997C77.1926 102.343 95.8733 121.253 95.8733 121.253L95.007 99.7676Z" fill="#F8A796"/>
</g>
<mask id="mask2_1_124" style="mask-type:luminance" maskUnits="userSpaceOnUse" x="60" y="24" width="160" height="199">
<path d="M220 24.7734H60V222.26H220V24.7734Z" fill="white"/>
</mask>
<g mask="url(#mask2_1_124)">
<path d="M103.45 31.2598H170.587C175.585 31.2598 179.639 35.2765 179.639 40.2298V150.94V176.197C179.639 181.195 175.538 185.167 170.587 185.167H103.45C98.4575 185.167 94.3984 181.156 94.3984 176.197V65.4899V40.2326C94.3984 35.2319 98.4997 31.2598 103.45 31.2598Z" fill="#2B2B2B"/>
</g>
<mask id="mask3_1_124" style="mask-type:luminance" maskUnits="userSpaceOnUse" x="60" y="24" width="160" height="199">
<path d="M220 24.7734H60V222.26H220V24.7734Z" fill="white"/>
</mask>
<g mask="url(#mask3_1_124)">
<path d="M98.787 172.944H175.254L175.254 43.4886H98.787L98.787 172.944Z" fill="white"/>
</g>
<mask id="mask4_1_124" style="mask-type:luminance" maskUnits="userSpaceOnUse" x="60" y="24" width="160" height="199">
<path d="M220 24.7734H60V222.26H220V24.7734Z" fill="white"/>
</mask>
<g mask="url(#mask4_1_124)">
<path d="M121.418 39.4182H152.501C152.954 39.4182 153.32 39.0558 153.32 38.6071C153.32 38.1583 152.954 37.7959 152.501 37.7959H121.418C120.965 37.7959 120.6 38.1583 120.6 38.6071C120.6 39.0558 120.965 39.4182 121.418 39.4182Z" fill="white"/>
</g>
<mask id="mask5_1_124" style="mask-type:luminance" maskUnits="userSpaceOnUse" x="60" y="24" width="160" height="199">
<path d="M220 24.7734H60V222.26H220V24.7734Z" fill="white"/>
</mask>
<g mask="url(#mask5_1_124)">
<mask id="mask6_1_124" style="mask-type:luminance" maskUnits="userSpaceOnUse" x="98" y="165" width="78" height="122">
<path d="M98.791 286.585H175.168L175.168 165.528H98.791L98.791 286.585Z" fill="white"/>
</mask>
<g mask="url(#mask6_1_124)">
<path d="M98.787 172.942H175.254V165.285H98.787V172.942Z" fill="#BED1F9"/>
</g>
<mask id="mask7_1_124" style="mask-type:luminance" maskUnits="userSpaceOnUse" x="98" y="51" width="78" height="122">
<path d="M175.252 51.6406H98.875V172.698H175.252V51.6406Z" fill="white"/>
</mask>
<g mask="url(#mask7_1_124)">
<path d="M107.82 125.554L100.532 150.608L94.1181 150.644L90.5795 152.707C89.6062 153.275 89.3615 154.557 90.0591 155.441C90.5513 156.063 91.1561 156.748 91.8087 157.303C92.2025 157.638 92.7229 157.794 93.2405 157.732L97.308 157.267C98.8776 157.088 100.366 156.481 101.612 155.516L103.632 153.947C103.632 153.947 112.459 135.937 117.606 125.621C116.594 123.945 114.444 123.067 112.475 122.987C110.506 122.906 108.121 123.622 107.82 125.554Z" fill="#F8A799"/>
</g>
<mask id="mask8_1_124" style="mask-type:luminance" maskUnits="userSpaceOnUse" x="98" y="51" width="78" height="122">
<path d="M175.252 51.6406H98.875V172.698H175.252V51.6406Z" fill="white"/>
</mask>
<g mask="url(#mask8_1_124)">
<path d="M135.007 59.7747C136.245 56.1817 140.659 55.1252 144.051 56.5441C147.443 57.9629 158.931 63.4542 156.099 74.579C155.688 76.1874 154.388 77.8236 155.12 79.3734C158.706 86.9693 167.05 83.17 172.636 89.9268C185.702 105.721 168.723 111.544 170.096 115.588C171.469 119.63 175.005 123.017 178.864 123.173C173.643 124.974 169.041 126.93 163.477 126.306C157.916 125.682 152.321 123.298 148.158 118.983C143.995 114.668 141.435 108.316 142.076 102.289C142.546 97.8739 148.709 98.4983 145.651 95.3429C143.626 93.2523 140.892 92.2766 138.574 90.607C133.215 86.7491 130.608 79.6383 129.199 72.8731C128.602 70.0103 128.161 66.9943 128.898 64.2542C129.637 61.5113 132.363 59.588 135.007 59.7747Z" fill="#2B2B2B"/>
</g>
<mask id="mask9_1_124" style="mask-type:luminance" maskUnits="userSpaceOnUse" x="98" y="51" width="78" height="122">
<path d="M175.252 51.6406H98.875V172.698H175.252V51.6406Z" fill="white"/>
</mask>
<g mask="url(#mask9_1_124)">
<path d="M120.662 124.357C114.549 127.178 111.632 124.293 106.96 129.11C105.517 128.07 105.97 129.286 106.133 127.524C106.296 125.765 107.795 123.803 109.404 123.042C109.849 116.393 110.729 113.98 114.738 106.189C115.95 103.83 118.383 102.241 121.056 102.286C122.58 102.311 124.13 102.693 125.295 103.683C126.293 104.53 126.319 105.639 126.111 106.924L120.279 119.022C120.437 118.994 121.632 118.897 121.832 119.028L120.662 124.357Z" fill="#007CFF"/>
</g>
<mask id="mask10_1_124" style="mask-type:luminance" maskUnits="userSpaceOnUse" x="98" y="51" width="78" height="122">
<path d="M175.252 51.6406H98.875V172.698H175.252V51.6406Z" fill="white"/>
</mask>
<g mask="url(#mask10_1_124)">
<path d="M120.662 124.357C114.549 127.178 111.632 124.293 106.96 129.11C105.517 128.07 105.97 129.286 106.133 127.524C106.296 125.765 107.795 123.803 109.404 123.042C109.849 116.393 110.729 113.98 114.738 106.189C115.95 103.83 118.383 102.241 121.056 102.286C122.58 102.311 124.13 102.693 125.295 103.683C126.293 104.53 126.319 105.639 126.111 106.924L120.279 119.022C120.437 118.994 121.632 118.897 121.832 119.028L120.662 124.357Z" fill="#343434"/>
</g>
<mask id="mask11_1_124" style="mask-type:luminance" maskUnits="userSpaceOnUse" x="98" y="51" width="78" height="122">
<path d="M175.252 51.6406H98.875V172.698H175.252V51.6406Z" fill="white"/>
</mask>
<g mask="url(#mask11_1_124)">
<path d="M132.678 175.486C133.935 180.598 135.553 186.265 137.617 192.436C138.216 180.01 141.612 163.372 141.721 162.806L132.678 175.486Z" fill="black"/>
</g>
<mask id="mask12_1_124" style="mask-type:luminance" maskUnits="userSpaceOnUse" x="98" y="51" width="78" height="122">
<path d="M175.252 51.6406H98.875V172.698H175.252V51.6406Z" fill="white"/>
</mask>
<g mask="url(#mask12_1_124)">
<path d="M126.23 163.424L143.676 228.397L167.448 275.951L173.699 273.799C173.699 273.799 170.135 254.524 163.001 236.818C161.356 232.732 158.211 228.553 157.167 225.208C156.25 222.276 157.699 189.487 153.477 181.863C153.477 181.863 157.62 169.648 150.101 159.14L126.23 163.424Z" fill="#C95B51"/>
</g>
<mask id="mask13_1_124" style="mask-type:luminance" maskUnits="userSpaceOnUse" x="98" y="51" width="78" height="122">
<path d="M175.252 51.6406H98.875V172.698H175.252V51.6406Z" fill="white"/>
</mask>
<g mask="url(#mask13_1_124)">
<path d="M123.539 160.026L111.764 224.431L106.414 277.234L112.861 278.7C112.861 278.7 120.175 260.492 123.621 241.736C124.417 237.409 123.992 232.211 124.901 228.827C125.697 225.861 127.134 224.119 129.666 217.496C132.729 209.484 136.226 198.669 136.735 189.989C136.735 189.989 146.794 181.822 146.054 168.957L123.539 160.026Z" fill="#C95B51"/>
</g>
<mask id="mask14_1_124" style="mask-type:luminance" maskUnits="userSpaceOnUse" x="98" y="51" width="78" height="122">
<path d="M175.252 51.6406H98.875V172.698H175.252V51.6406Z" fill="white"/>
</mask>
<g mask="url(#mask14_1_124)">
<path d="M156.743 207.414C132.872 212.247 113.744 206.145 113.744 206.145L120.166 146.036C120.166 146 120.177 145.964 120.205 145.93C119.857 145.88 119.603 145.548 119.643 145.183C119.702 144.578 119.755 143.987 119.814 143.383C119.814 143.366 119.823 143.352 119.823 143.344C119.859 142.99 120.175 142.739 120.512 142.786H120.521C119.162 134.415 118.096 128.812 117.888 123.477C117.603 119.187 117.415 116.233 117.938 110.95C118.869 105.348 121.84 101.286 126.878 100.595C128.281 100.405 129.772 100.232 131.153 100.099C135.48 99.8004 139.814 99.8004 144.135 100.099C145.364 100.163 146.571 100.258 147.705 100.375C151.941 100.79 154.596 104.776 153.404 108.907C148.484 126.039 147.412 135.101 147.84 142.817C147.93 142.808 148.028 142.794 148.118 142.786C148.38 142.761 148.627 142.92 148.731 143.179C148.951 143.759 149.19 144.333 149.421 144.916C149.429 144.946 149.438 144.971 149.443 145.002C149.528 145.395 149.294 145.78 148.92 145.875C148.833 145.886 148.743 145.897 148.656 145.905C148.734 146.123 149.39 147.926 154.793 162.806C159.814 176.637 156.743 207.414 156.743 207.414Z" fill="#2F8AB2"/>
</g>
<mask id="mask15_1_124" style="mask-type:luminance" maskUnits="userSpaceOnUse" x="98" y="51" width="78" height="122">
<path d="M175.252 51.6406H98.875V172.698H175.252V51.6406Z" fill="white"/>
</mask>
<g mask="url(#mask15_1_124)">
<path d="M142.622 84.7979C141.429 89.1463 139.966 97.1937 142.833 100.118C142.833 100.118 139.044 103.134 131.01 106.033C128.611 105.428 129.117 100.118 129.117 100.118C134.135 98.9498 134.281 95.3317 133.674 91.9338L142.622 84.7979Z" fill="#F8A799"/>
</g>
<mask id="mask16_1_124" style="mask-type:luminance" maskUnits="userSpaceOnUse" x="98" y="51" width="78" height="122">
<path d="M175.252 51.6406H98.875V172.698H175.252V51.6406Z" fill="white"/>
</mask>
<g mask="url(#mask16_1_124)">
<path d="M129.482 99.8701C122.022 109.361 121.912 123.519 123.811 169.585C123.977 173.599 120.287 173.164 116.284 172.528C111.074 171.7 111.074 171.7 111.074 171.7C111.074 171.7 116.979 157.562 115.516 136.464C114.053 115.368 115.069 107.912 118.52 104.012C121.972 100.115 129.482 99.8701 129.482 99.8701Z" fill="#007CFF"/>
</g>
<mask id="mask17_1_124" style="mask-type:luminance" maskUnits="userSpaceOnUse" x="98" y="51" width="78" height="122">
<path d="M175.252 51.6406H98.875V172.698H175.252V51.6406Z" fill="white"/>
</mask>
<g mask="url(#mask17_1_124)">
<path d="M129.482 99.8701C122.022 109.361 121.912 123.519 123.811 169.585C123.977 173.599 120.287 173.164 116.284 172.528C111.074 171.7 111.074 171.7 111.074 171.7C111.074 171.7 116.979 157.562 115.516 136.464C114.053 115.368 115.069 107.912 118.52 104.012C121.972 100.115 129.482 99.8701 129.482 99.8701Z" fill="#343434"/>
</g>
<mask id="mask18_1_124" style="mask-type:luminance" maskUnits="userSpaceOnUse" x="98" y="51" width="78" height="122">
<path d="M175.252 51.6406H98.875V172.698H175.252V51.6406Z" fill="white"/>
</mask>
<g mask="url(#mask18_1_124)">
<path d="M143.148 99.4356C143.148 99.4356 137.952 104.01 136.402 115.037C133.933 132.824 134.706 149.986 135.634 169.568C135.772 172.448 138.698 174.346 141.423 173.34C141.423 173.34 157.536 172.841 162.059 168.98C162.38 163.079 152.681 150.062 153.691 134.46C154.701 118.859 156.653 105.264 154.619 102.329C152.585 99.391 143.148 99.4356 143.148 99.4356Z" fill="#007CFF"/>
</g>
<mask id="mask19_1_124" style="mask-type:luminance" maskUnits="userSpaceOnUse" x="98" y="51" width="78" height="122">
<path d="M175.252 51.6406H98.875V172.698H175.252V51.6406Z" fill="white"/>
</mask>
<g mask="url(#mask19_1_124)">
<path d="M143.148 99.4356C143.148 99.4356 137.952 104.01 136.402 115.037C133.933 132.824 134.706 149.986 135.634 169.568C135.772 172.448 138.698 174.346 141.423 173.34C141.423 173.34 157.536 172.841 162.059 168.98C162.38 163.079 152.681 150.062 153.691 134.46C154.701 118.859 156.653 105.264 154.619 102.329C152.585 99.391 143.148 99.4356 143.148 99.4356Z" fill="#343434"/>
</g>
<mask id="mask20_1_124" style="mask-type:luminance" maskUnits="userSpaceOnUse" x="98" y="51" width="78" height="122">
<path d="M175.252 51.6406H98.875V172.698H175.252V51.6406Z" fill="white"/>
</mask>
<g mask="url(#mask20_1_124)">
<path opacity="0.71" d="M140.768 87.7061L133.668 91.9263C133.871 92.7235 133.98 93.5291 133.991 94.3402C136.537 94.0726 140.2 92.0266 140.672 90.0698C140.892 89.2921 140.925 88.4921 140.768 87.7061Z" fill="#F26E71"/>
</g>
<mask id="mask21_1_124" style="mask-type:luminance" maskUnits="userSpaceOnUse" x="98" y="51" width="78" height="122">
<path d="M175.252 51.6406H98.875V172.698H175.252V51.6406Z" fill="white"/>
</mask>
<g mask="url(#mask21_1_124)">
<path d="M132.955 68.781C127.76 75.6717 125.45 84.6334 126.674 93.1491C124.156 88.4188 123.116 82.8717 122.955 77.5253C122.874 74.8382 123.034 72.0563 124.238 69.6479C125.442 67.2396 127.915 65.2911 130.623 65.3998C131.591 65.4389 132.584 65.7594 133.248 66.4591C133.915 67.1587 133.535 68.0117 132.955 68.781Z" fill="#2B2B2B"/>
</g>
<mask id="mask22_1_124" style="mask-type:luminance" maskUnits="userSpaceOnUse" x="98" y="51" width="78" height="122">
<path d="M175.252 51.6406H98.875V172.698H175.252V51.6406Z" fill="white"/>
</mask>
<g mask="url(#mask22_1_124)">
<path d="M146.397 76.0121C145.058 83.0811 144.642 86.0971 140.543 89.4811C134.42 94.5571 126.006 91.8867 125.179 84.6811C124.448 78.1919 126.766 67.7249 134.119 65.389C138.943 63.6413 144.282 66.0998 146.043 70.8803C146.65 72.5249 146.774 74.3034 146.397 76.0121Z" fill="#F8A799"/>
</g>
<mask id="mask23_1_124" style="mask-type:luminance" maskUnits="userSpaceOnUse" x="98" y="51" width="78" height="122">
<path d="M175.252 51.6406H98.875V172.698H175.252V51.6406Z" fill="white"/>
</mask>
<g mask="url(#mask23_1_124)">
<path d="M134.011 77.6314C133.839 78.2084 133.389 78.6125 133.015 78.5289C132.644 78.4453 132.469 77.9101 132.635 77.3331C132.801 76.7561 133.26 76.3463 133.631 76.4272C134.002 76.5108 134.177 77.0488 134.011 77.6314Z" fill="#1A2E35"/>
</g>
<mask id="mask24_1_124" style="mask-type:luminance" maskUnits="userSpaceOnUse" x="98" y="51" width="78" height="122">
<path d="M175.252 51.6406H98.875V172.698H175.252V51.6406Z" fill="white"/>
</mask>
<g mask="url(#mask24_1_124)">
<path d="M127.947 76.1853C127.776 76.7623 127.331 77.1665 126.951 77.0829C126.572 76.9992 126.406 76.464 126.577 75.887C126.749 75.31 127.193 74.9059 127.573 74.9895C127.953 75.0703 128.122 75.5999 127.947 76.1853Z" fill="#1A2E35"/>
</g>
<mask id="mask25_1_124" style="mask-type:luminance" maskUnits="userSpaceOnUse" x="98" y="51" width="78" height="122">
<path d="M175.252 51.6406H98.875V172.698H175.252V51.6406Z" fill="white"/>
</mask>
<g mask="url(#mask25_1_124)">
<path d="M127.729 75.0527L126.457 74.3447C126.454 74.3447 126.851 75.5963 127.729 75.0527Z" fill="#1A2E35"/>
</g>
<mask id="mask26_1_124" style="mask-type:luminance" maskUnits="userSpaceOnUse" x="98" y="51" width="78" height="122">
<path d="M175.252 51.6406H98.875V172.698H175.252V51.6406Z" fill="white"/>
</mask>
<g mask="url(#mask26_1_124)">
<path d="M145.973 83.1674C145.231 84.3493 144.018 85.166 142.637 85.4141C140.941 85.6454 140.443 83.6886 141.234 81.8823C141.965 80.2573 143.67 78.1862 145.228 78.7855C146.786 79.3903 146.975 81.6231 145.973 83.1674Z" fill="#F8A799"/>
</g>
<mask id="mask27_1_124" style="mask-type:luminance" maskUnits="userSpaceOnUse" x="98" y="51" width="78" height="122">
<path d="M175.252 51.6406H98.875V172.698H175.252V51.6406Z" fill="white"/>
</mask>
<g mask="url(#mask27_1_124)">
<path d="M136.732 75.3232C136.645 75.2954 136.578 75.2285 136.544 75.142C136.248 74.3225 135.556 73.7065 134.704 73.503C134.527 73.4779 134.406 73.319 134.428 73.1434C134.431 73.1295 134.431 73.1183 134.437 73.1044C134.485 72.9121 134.673 72.7894 134.87 72.8229C135.956 73.0598 136.842 73.8347 137.219 74.8717C137.278 75.0556 137.182 75.2508 137 75.3177C136.915 75.3567 136.819 75.3595 136.732 75.3232Z" fill="#1A2E35"/>
</g>
<mask id="mask28_1_124" style="mask-type:luminance" maskUnits="userSpaceOnUse" x="98" y="51" width="78" height="122">
<path d="M175.252 51.6406H98.875V172.698H175.252V51.6406Z" fill="white"/>
</mask>
<g mask="url(#mask28_1_124)">
<path d="M126.604 72.7616C126.422 72.756 126.281 72.6027 126.289 72.4243C126.292 72.3212 126.346 72.2264 126.433 72.1679C127.291 71.393 128.467 71.0613 129.609 71.2703C129.786 71.3177 129.89 71.4961 129.842 71.6689C129.839 71.6773 129.839 71.6829 129.837 71.6912C129.775 71.878 129.581 71.9867 129.386 71.9421C128.481 71.7916 127.555 72.062 126.877 72.678C126.799 72.7365 126.7 72.7672 126.604 72.7616Z" fill="#1A2E35"/>
</g>
<mask id="mask29_1_124" style="mask-type:luminance" maskUnits="userSpaceOnUse" x="98" y="51" width="78" height="122">
<path d="M175.252 51.6406H98.875V172.698H175.252V51.6406Z" fill="white"/>
</mask>
<g mask="url(#mask29_1_124)">
<path d="M133.789 76.5029L132.518 75.7949C132.518 75.7949 132.914 77.0381 133.789 76.5029Z" fill="#1A2E35"/>
</g>
<mask id="mask30_1_124" style="mask-type:luminance" maskUnits="userSpaceOnUse" x="98" y="51" width="78" height="122">
<path d="M175.252 51.6406H98.875V172.698H175.252V51.6406Z" fill="white"/>
</mask>
<g mask="url(#mask30_1_124)">
<path d="M128.9 84.8381C128.9 84.8381 131.1 84.0854 137.407 83.4248C136.878 85.3844 135.663 87.0457 132.425 87.3858C130.827 87.7091 129.266 86.6861 128.94 85.1029C128.926 85.0137 128.912 84.9273 128.9 84.8381Z" fill="#1A2E35"/>
<path d="M133.755 85.725C132.506 85.7891 131.308 86.2407 130.332 87.0156C130.973 87.339 131.699 87.4616 132.414 87.3641C133.663 87.3055 134.858 86.8539 135.829 86.0735C135.193 85.7445 134.467 85.6219 133.755 85.725Z" fill="#EF6565" stroke="#EF6565" stroke-width="0.5" stroke-miterlimit="10"/>
<path d="M129.184 84.7576C129.364 85.212 129.783 85.5326 130.272 85.5827C132.143 85.3765 133.997 85.0169 135.808 84.5123C136.399 84.3925 136.891 83.9883 137.122 83.4336C134.444 83.6733 131.791 84.1137 129.184 84.7576Z" fill="#FAFAFA"/>
</g>
<mask id="mask31_1_124" style="mask-type:luminance" maskUnits="userSpaceOnUse" x="98" y="51" width="78" height="122">
<path d="M175.252 51.6406H98.875V172.698H175.252V51.6406Z" fill="white"/>
</mask>
<g mask="url(#mask31_1_124)">
<path d="M138.164 67.1005C142.235 75.2037 142.851 84.8762 139.835 93.4003C143.444 89.0212 145.664 83.5159 146.915 78.0441C147.545 75.2957 147.942 72.3995 147.163 69.6873C146.384 66.9751 144.178 64.4859 141.303 64.0705C140.277 63.9228 139.166 64.0594 138.325 64.6503C137.484 65.2413 137.709 66.1974 138.164 67.1005Z" fill="#2B2B2B"/>
</g>
<mask id="mask32_1_124" style="mask-type:luminance" maskUnits="userSpaceOnUse" x="98" y="51" width="78" height="122">
<path d="M175.252 51.6406H98.875V172.698H175.252V51.6406Z" fill="white"/>
</mask>
<g mask="url(#mask32_1_124)">
<path d="M162.056 126.513L169.344 151.567L175.758 151.603L179.296 153.666C180.27 154.234 180.514 155.516 179.817 156.4C179.324 157.022 178.72 157.707 178.067 158.262C177.673 158.597 177.153 158.753 176.635 158.691L172.568 158.226C170.998 158.047 169.51 157.44 168.264 156.475L166.244 154.906C166.244 154.906 157.417 136.896 152.27 126.58C153.282 124.904 155.431 124.026 157.4 123.946C159.369 123.865 161.755 124.584 162.056 126.513Z" fill="#F8A799"/>
</g>
<mask id="mask33_1_124" style="mask-type:luminance" maskUnits="userSpaceOnUse" x="98" y="51" width="78" height="122">
<path d="M175.252 51.6406H98.875V172.698H175.252V51.6406Z" fill="white"/>
</mask>
<g mask="url(#mask33_1_124)">
<path d="M154.169 101.282C158.447 103.273 160.743 107.967 161.851 112.519C162.959 117.07 163.229 121.857 165.041 126.18C166.009 125.848 167.837 126.579 168.321 127.473C168.805 128.368 168.838 129.427 168.858 130.442C168.878 131.457 168.903 132.513 169.379 133.413C166.405 136.664 159.229 137.89 154.807 138.108C152.771 135.312 152.315 131.362 152.9 127.964C150.284 121.227 148.824 113.979 147.66 106.854C147.26 104.418 148.405 100.886 151.902 100.889C152.402 100.861 153.716 101.07 154.169 101.282Z" fill="#007CFF"/>
</g>
<mask id="mask34_1_124" style="mask-type:luminance" maskUnits="userSpaceOnUse" x="98" y="51" width="78" height="122">
<path d="M175.252 51.6406H98.875V172.698H175.252V51.6406Z" fill="white"/>
</mask>
<g mask="url(#mask34_1_124)">
<path d="M154.169 101.282C158.447 103.273 160.743 107.967 161.851 112.519C162.959 117.07 163.229 121.857 165.041 126.18C166.009 125.848 167.837 126.579 168.321 127.473C168.805 128.368 168.838 129.427 168.858 130.442C168.878 131.457 168.903 132.513 169.379 133.413C166.405 136.664 159.229 137.89 154.807 138.108C152.771 135.312 152.315 131.362 152.9 127.964C150.284 121.227 148.824 113.979 147.66 106.854C147.26 104.418 148.405 100.886 151.902 100.889C152.402 100.861 153.716 101.07 154.169 101.282Z" fill="#343434"/>
</g>
<mask id="mask35_1_124" style="mask-type:luminance" maskUnits="userSpaceOnUse" x="98" y="51" width="78" height="122">
<path d="M175.252 51.6406H98.875V172.698H175.252V51.6406Z" fill="white"/>
</mask>
<g mask="url(#mask35_1_124)">
<path d="M142.178 78.1136C137.84 75.8139 134.62 71.5463 133.618 66.7741C130.226 67.7107 127.317 70.1693 126.023 73.4167C124.811 71.3233 125.205 68.5358 126.724 66.6487C128.243 64.7616 130.968 63.9253 133.298 64.6334C135.16 64.2933 137.267 63.6438 138.966 64.4745C140.482 65.2159 141.447 66.7546 142.035 68.3268C143.177 71.3679 143.326 75.0669 142.178 78.1136Z" fill="#2B2B2B"/>
</g>
<mask id="mask36_1_124" style="mask-type:luminance" maskUnits="userSpaceOnUse" x="98" y="51" width="78" height="122">
<path d="M175.252 51.6406H98.875V172.698H175.252V51.6406Z" fill="white"/>
</mask>
<g mask="url(#mask36_1_124)">
<path d="M130.256 76.8926C130.256 76.8926 130.794 79.209 128.54 79.5574C128.54 79.5574 125.545 80.2738 129.682 81.7205" stroke="#EF6565" stroke-width="2" stroke-miterlimit="10"/>
</g>
</g>
<mask id="mask37_1_124" style="mask-type:luminance" maskUnits="userSpaceOnUse" x="60" y="24" width="160" height="199">
<path d="M220 24.7734H60V222.26H220V24.7734Z" fill="white"/>
</mask>
<g mask="url(#mask37_1_124)">
<path d="M181.373 121.513C181.373 121.513 180.912 123.213 179.868 124.049L178.628 109.92C178.628 109.92 169.739 100.074 171.885 86.7976C172.619 82.2512 174.901 78.07 178.391 75.0289C180.383 73.2951 182.571 72.1355 183.86 73.7662C183.86 73.7662 193.93 97.5321 200.889 114.893L181.373 121.513Z" fill="#F8A796"/>
</g>
<mask id="mask38_1_124" style="mask-type:luminance" maskUnits="userSpaceOnUse" x="60" y="24" width="160" height="199">
<path d="M220 24.7734H60V222.26H220V24.7734Z" fill="white"/>
</mask>
<g mask="url(#mask38_1_124)">
<path d="M181.843 88.004C179.061 86.7357 177.606 79.5607 177.086 76.3356C179.319 74.1084 182.121 72.107 183.654 74.0443C183.654 74.0443 185.871 79.2764 188.945 86.6269C186.841 87.7865 183.921 88.9517 181.843 88.004Z" fill="#F97167"/>
</g>
<path d="M177.329 82.5539C174.756 81.3808 173.411 74.7443 172.93 71.7612C174.996 69.7011 177.587 67.8499 179.005 69.6418C179.005 69.6418 181.055 74.4813 183.899 81.2802C181.953 82.3528 179.252 83.4305 177.329 82.5539Z" fill="#F97167"/>
</svg>
