<svg width="160" height="160" viewBox="0 0 160 160" fill="none" xmlns="http://www.w3.org/2000/svg">
<path d="M80 8C89.4552 8 98.8178 9.86234 107.553 13.4807C116.289 17.099 124.226 22.4025 130.912 29.0883C137.598 35.7741 142.901 43.7114 146.519 52.4468C150.138 61.1822 152 70.5448 152 80C152 89.4552 150.138 98.8178 146.519 107.553C142.901 116.289 137.597 124.226 130.912 130.912C124.226 137.598 116.289 142.901 107.553 146.519C98.8177 150.138 89.4552 152 80 152C70.5448 152 61.1822 150.138 52.4468 146.519C43.7113 142.901 35.7741 137.597 29.0883 130.912C22.4025 124.226 17.099 116.289 13.4807 107.553C9.86233 98.8177 8 89.4551 8 80C8 70.5448 9.86234 61.1822 13.4807 52.4468C17.099 43.7113 22.4025 35.7741 29.0883 29.0883C35.7742 22.4025 43.7114 17.099 52.4468 13.4807C61.1823 9.86232 70.5449 7.99999 80 8L80 8Z" stroke="#F9F5FF" stroke-width="16" stroke-linecap="round" stroke-linejoin="round"/>
<path d="M80 8C94.2403 8 108.161 12.2227 120.001 20.1342C131.841 28.0457 141.07 39.2905 146.519 52.4468C151.969 65.6031 153.395 80.0799 150.617 94.0465C147.838 108.013 140.981 120.842 130.912 130.912C120.842 140.981 108.013 147.838 94.0465 150.617C80.0799 153.395 65.6031 151.969 52.4468 146.519C39.2905 141.07 28.0456 131.841 20.1342 120.001C12.2227 108.161 8 94.2403 8 80" stroke="#0C87C9" stroke-width="16" stroke-linecap="round" stroke-linejoin="round"/>
</svg>
